<svg width="58" height="58" viewBox="0 0 58 58" fill="none" xmlns="http://www.w3.org/2000/svg">
<g id="Group 7">
<rect id="Rectangle 958" width="58" height="58" rx="10" fill="white"/>
<path id="Vector" fill-rule="evenodd" clip-rule="evenodd" d="M29.9158 8.19274C29.7116 8.9731 28.3432 9.50653 27.4373 9.15958C27.1399 9.04527 26.3851 9.38196 25.7602 9.90696C24.869 10.6562 24.6724 11.0548 24.8481 11.7549C25.1561 12.9804 24.7919 13.9348 23.9304 14.1597C22.799 14.4554 22.9384 16.8302 24.1534 17.9549C24.8888 18.6356 25.0483 19.0525 24.8752 19.8406C24.6977 20.6481 24.873 21.0628 25.7429 21.8952C26.4368 22.5598 27.0511 22.8547 27.434 22.7081C28.3744 22.3476 29.7226 22.8342 29.925 23.6072C30.2213 24.7396 32.7475 24.5748 33.8107 23.3533C34.4566 22.6114 34.8696 22.4436 35.6603 22.6015C37.0616 22.8814 38.7608 21.1786 38.4226 19.8329C38.1971 18.9353 38.9559 17.7142 39.7389 17.7142C39.9263 17.7142 40.0796 17.0324 40.0796 16.1993C40.0796 15.0386 39.8566 14.4777 39.1268 13.8022C38.3878 13.1178 38.2279 12.7071 38.4131 11.9689C38.7608 10.5858 37.0855 8.87858 35.6603 9.16324C34.8696 9.32114 34.4566 9.15335 33.8107 8.41146C32.7274 7.16692 30.2213 7.02623 29.9158 8.19274ZM31.0209 9.76738C30.6075 10.4426 28.6791 11.1592 27.6009 11.0383C26.8303 10.9518 26.7086 11.0735 26.7951 11.8432C26.9162 12.9203 26.1988 14.8467 25.5229 15.2596C24.95 15.6091 24.88 16.6151 25.4283 16.6151C25.9498 16.6151 26.8953 18.9514 26.7834 19.9641C26.7057 20.6671 26.8791 20.7873 28.0414 20.8356C29.4181 20.8928 31.2776 21.8409 31.2776 22.4854C31.2776 22.6821 31.5251 22.8433 31.8277 22.8433C32.1303 22.8433 32.3778 22.5982 32.3778 22.2985C32.3778 21.6567 34.6447 20.6261 35.7945 20.7451C36.4194 20.81 36.5772 20.6525 36.5122 20.0282C36.393 18.8796 37.4247 16.6151 38.0673 16.6151C38.7861 16.6151 38.7711 15.5538 38.0489 15.2768C37.3517 15.0097 36.4004 12.8174 36.5122 11.7366C36.5783 11.1013 36.4224 10.9551 35.7549 11.0266C34.7195 11.1372 32.3778 10.1986 32.3778 9.67286C32.3778 9.12514 31.3707 9.19512 31.0209 9.76738ZM41.7197 9.74576C41.3673 10.6921 40.8825 13.8663 41.0493 14.1363C41.3585 14.6353 42.2336 14.4341 42.6176 13.7758C43.2157 12.75 43.1083 17.7212 42.4947 19.4577C42.1129 20.5385 42.0839 21.0353 42.3847 21.3357C43.0313 21.9816 43.2245 21.8428 43.9665 20.1978C44.4715 19.0778 44.6626 17.8223 44.6589 15.645C44.6549 13.2794 44.7513 12.7199 45.1126 13.0192C45.6279 13.4464 46.6812 13.1705 46.6812 12.6085C46.6812 12.1531 42.9238 9.28781 42.3271 9.28781C42.0869 9.28781 41.8136 9.49407 41.7197 9.74576ZM29.994 11.8355C28.3692 12.5071 27.4267 14.0136 27.4267 15.9399C27.4267 17.586 27.565 17.897 28.7965 19.0247C29.8205 19.9619 30.4968 20.2788 31.4738 20.2788C34.1144 20.2788 36.0454 18.4147 36.0454 15.8655C36.0454 12.8811 32.7596 10.6928 29.994 11.8355ZM29.684 13.9879C28.8295 14.9313 28.9014 17.0753 29.8153 17.9018C30.9314 18.9108 32.6951 18.7616 33.7194 17.5717C34.7779 16.3425 34.8021 15.5329 33.8181 14.2832C32.8796 13.091 30.6413 12.9313 29.684 13.9879ZM14.407 16.3872C14.407 16.6646 14.6567 17.0991 14.9623 17.3522C15.4306 17.7406 15.1471 17.937 13.1468 18.6092C10.3096 19.5633 7.07378 21.6724 7.07268 22.5685C7.07158 23.476 8.01927 23.3636 9.43016 22.2883C10.7523 21.2811 14.7528 19.546 15.7533 19.546C16.3064 19.546 16.2965 19.6087 15.669 20.0732C15.0154 20.5572 15.0052 20.6492 15.545 21.1969C16.0874 21.7475 16.2639 21.6852 17.8141 20.3953C18.7383 19.6259 19.5052 18.7422 19.518 18.4315C19.532 18.0993 18.7075 17.4581 17.5163 16.8745C15.2604 15.7695 14.407 15.6354 14.407 16.3872ZM16.3222 24.2333C15.8747 25.5152 14.0076 26.1827 12.4471 25.6189C11.4884 25.2727 11.2874 25.3672 9.95829 26.7902C8.69483 28.1435 8.56573 28.4373 8.93395 29.1243C9.59484 30.3575 8.71243 32.6029 7.38589 33.0649C6.42867 33.3983 6.33881 33.5815 6.34394 35.1891C6.35055 37.2103 6.56986 37.6661 7.70569 38.0204C8.7524 38.3464 9.54239 40.7055 8.96586 41.7818C8.63395 42.4017 8.81255 42.7428 10.1659 44.0694C11.5661 45.4422 11.85 45.5781 12.5435 45.2074C13.6761 44.6021 15.7933 45.4382 16.4784 46.7618C16.9732 47.7177 17.1507 47.7851 18.9096 47.6829C20.4907 47.5913 20.8805 47.4257 21.2454 46.6911C21.8587 45.4572 23.8468 44.664 25.0054 45.1912C25.7998 45.5528 26.0583 45.4338 27.4575 44.0621C28.8273 42.719 28.9784 42.416 28.6747 41.6177C28.1576 40.2585 28.9674 38.3406 30.2466 37.8951C31.2123 37.5587 31.2776 37.4052 31.2776 35.4701C31.2776 33.5269 31.2145 33.3804 30.214 33.0034C28.8438 32.4864 28.0245 30.3512 28.7078 29.0767C29.1104 28.3249 29.0078 28.097 27.6599 26.751C26.3085 25.4009 26.0686 25.2936 25.1459 25.627C23.6084 26.1827 21.738 25.5061 21.2939 24.2333C20.9583 23.2712 20.8086 23.2097 18.808 23.2097C16.8074 23.2097 16.6577 23.2712 16.3222 24.2333ZM40.186 24.6751C39.9909 25.4196 39.5332 25.5724 37.8637 25.45C36.5192 25.3511 35.1468 26.9001 35.4633 28.1593C35.6566 28.929 35.4839 29.3258 34.5916 30.1585C33.1022 31.5482 33.1018 32.9751 34.5908 34.2801C35.4883 35.0667 35.657 35.4412 35.463 36.2138C35.112 37.6111 36.5665 39.0975 38.0042 38.8102C38.8488 38.6414 39.2343 38.8117 40.0129 39.6983C41.3204 41.1869 42.8732 41.1869 44.1807 39.6983C44.9593 38.8117 45.3447 38.6414 46.1894 38.8102C47.627 39.0975 49.0816 37.6111 48.7306 36.2138C48.5366 35.4412 48.7053 35.0667 49.6027 34.2801C51.0712 32.9927 51.1691 31.0942 49.7986 30.4703C48.874 30.0494 48.7031 29.6094 48.8457 28.0186C48.9521 26.8338 47.5115 25.3632 46.3298 25.45C44.6483 25.5735 44.1664 25.4178 43.9305 24.6751C43.7428 24.0846 43.3756 23.9424 42.0377 23.9424C40.6862 23.9424 40.3422 24.0787 40.186 24.6751ZM17.5768 25.513C17.2904 26.6521 13.9089 28.1241 12.863 27.565C11.8522 27.0246 10.6137 28.1538 10.9126 29.3437C11.25 30.6876 9.97883 33.827 8.9974 34.0731C8.39372 34.2245 8.1722 34.5487 8.1722 35.2807C8.1722 35.9614 8.4359 36.4025 8.9974 36.6608C9.97369 37.1099 11.1862 40.2277 10.8634 41.4598C10.7281 41.9778 10.8825 42.5442 11.279 42.9817C11.8042 43.5613 12.0612 43.6096 12.8113 43.2682C13.5312 42.9406 13.9221 42.9821 14.758 43.4752C15.333 43.8148 16.0706 44.0925 16.397 44.0925C16.723 44.0925 17.1778 44.5047 17.4078 45.0084C17.7019 45.6536 18.116 45.9243 18.808 45.9243C19.5001 45.9243 19.9141 45.6536 20.2083 45.0084C20.4382 44.5047 20.8853 44.0925 21.2022 44.0925C21.519 44.0925 22.2881 43.8291 22.9112 43.5074C23.7551 43.0714 24.2521 43.0169 24.8598 43.2931C26.0393 43.8302 27.3475 42.5234 26.8098 41.3451C26.5333 40.7381 26.5879 40.2416 27.0244 39.3986C27.3464 38.7762 27.6101 38.0075 27.6101 37.6903C27.6101 37.373 28.0227 36.9568 28.5269 36.7652C29.7787 36.2897 29.8436 34.3802 28.6186 34.0731C27.6372 33.827 26.366 30.6876 26.7035 29.3437C27.0156 28.1021 25.7646 27.0239 24.683 27.6024C24.1835 27.8695 23.7364 27.8973 23.4606 27.6793C23.2215 27.4899 22.4066 27.136 21.6503 26.8928C20.6935 26.5846 20.2068 26.1798 20.0517 25.5625C19.7414 24.3271 17.8842 24.2897 17.5768 25.513ZM41.412 25.9629C41.1388 26.674 39.4543 27.3555 38.148 27.2833C37.2582 27.2338 37.1398 27.3522 37.1893 28.241C37.2615 29.546 36.5794 31.2287 35.8675 31.5016C35.1776 31.7658 35.1446 32.6 35.8084 32.9916C36.5695 33.4408 37.1456 34.759 37.1456 36.0512C37.1456 37.0634 37.2494 37.1898 37.9334 37.0114C38.7821 36.7894 41.5466 38.0086 41.5466 38.6043C41.5466 38.8018 41.7942 38.9634 42.0968 38.9634C42.3993 38.9634 42.6469 38.8018 42.6469 38.6043C42.6469 37.979 45.4133 36.7901 46.3181 37.0264C47.0505 37.2177 47.1352 37.1385 46.9507 36.4336C46.69 35.4382 47.5471 33.2697 48.318 32.9744C49.0343 32.6996 49.05 31.779 48.3433 31.5079C47.6094 31.2269 46.6918 28.9268 46.9379 27.986C47.1092 27.3331 46.9841 27.2298 46.0845 27.2804C44.7447 27.3555 43.058 26.6828 42.7815 25.9629C42.6645 25.6577 42.3561 25.4079 42.0968 25.4079C41.8375 25.4079 41.529 25.6577 41.412 25.9629ZM39.1261 29.2181C36.9927 31.3492 37.4801 34.7077 40.1174 36.0519C41.8602 36.94 42.3308 36.9411 44.0563 36.0618C45.6528 35.2481 46.3144 34.0431 46.3144 31.9486C46.3144 30.7484 46.0753 30.2248 45.0675 29.2181C44.0031 28.1549 43.5682 27.9724 42.0968 27.9724C40.6254 27.9724 40.1904 28.1549 39.1261 29.2181ZM15.8021 29.4529C12.4119 31.2415 11.1763 35.4943 13.0962 38.7666C14.1327 40.534 15.8329 41.6474 18.1618 42.0837C19.1861 42.2757 19.9658 42.1204 21.4996 41.4188C26.6708 39.0539 26.9019 32.363 21.91 29.5386C20.0971 28.5128 17.6491 28.4784 15.8021 29.4529ZM40.2465 30.3373C39.1462 31.436 39.0978 32.6876 40.1064 33.968C41.0999 35.2301 42.7221 35.258 43.947 34.0339C44.4421 33.5394 44.8474 32.7077 44.8474 32.1856C44.8474 30.9642 43.3195 29.4379 42.0968 29.4379C41.5742 29.4379 40.7416 29.8427 40.2465 30.3373ZM16.7755 30.8594C13.0507 32.5494 12.7405 37.2865 16.2033 39.5972C18.5326 41.1517 21.6445 40.3431 23.2109 37.776C24.6918 35.3496 23.7262 32.3937 20.9953 30.9949C19.0611 30.0043 18.6866 29.9922 16.7755 30.8594ZM44.7506 41.747C44.3677 42.1292 44.9021 42.993 45.5285 43.0044C46.017 43.0136 45.992 43.0975 45.3975 43.4473C44.9941 43.6844 43.4992 43.8811 42.0755 43.8837C39.9978 43.8881 39.0934 43.6946 37.4962 42.9047C36.1803 42.2544 35.3823 42.0438 35.1417 42.2841C34.5156 42.9095 35.4461 43.8595 37.5472 44.7406C39.1954 45.4316 40.0243 45.5473 42.4635 45.4264C44.0772 45.3466 45.7878 45.1546 46.2642 44.9996C47.0483 44.745 47.0934 44.7886 46.7358 45.4561C46.2942 46.2801 46.5055 46.6571 47.4084 46.6571C47.7869 46.6571 48.4108 45.8265 49.0757 44.4369C49.9753 42.5567 50.0557 42.1651 49.6013 41.8782C49.01 41.5041 45.099 41.3986 44.7506 41.747Z" fill="#545454"/>
</g>
</svg>
