<svg width="114" height="106" viewBox="0 0 114 106" fill="none" xmlns="http://www.w3.org/2000/svg">
<path d="M112.652 53C112.652 51.2127 112.555 49.4462 112.366 47.7047L111.372 47.8127C110.993 44.3198 110.235 40.931 109.136 37.6824L110.084 37.3622C108.946 33.9975 107.452 30.7814 105.642 27.7523L104.784 28.2651C103.012 25.2983 100.931 22.5132 98.5811 19.9474L99.3186 19.2721C96.9503 16.6858 94.3153 14.3191 91.4537 12.2088L90.8602 13.0136C88.0988 10.9771 85.1216 9.18292 81.9657 7.6655L82.399 6.76427C79.2611 5.25552 75.9502 4.01592 72.5016 3.078L72.2391 4.04295C68.9497 3.14834 65.5323 2.53279 62.0185 2.22573L62.1055 1.22953C60.3674 1.07764 58.6063 1 56.826 1C55.0458 1 53.2847 1.07764 51.5466 1.22953L51.6336 2.22573C48.1198 2.5328 44.7023 3.14834 41.413 4.04295L41.1505 3.078C37.7019 4.01592 34.391 5.25552 31.253 6.76427L31.6864 7.66551C28.5304 9.18292 25.5532 10.9771 22.7919 13.0136L22.1984 12.2088C19.3368 14.3191 16.7018 16.6858 14.3335 19.2721L15.071 19.9474C12.7215 22.5132 10.6404 25.2983 8.86829 28.2651L8.00979 27.7523C6.2004 30.7814 4.70595 33.9975 3.56844 37.3622L4.51577 37.6824C3.41749 40.931 2.65929 44.3198 2.27998 47.8127L1.28583 47.7047C1.09671 49.4462 0.999878 51.2127 0.999878 53C0.999878 54.7873 1.09671 56.5538 1.28583 58.2953L2.27998 58.1873C2.65929 61.6802 3.41749 65.069 4.51577 68.3176L3.56844 68.6378C4.70595 72.0025 6.2004 75.2186 8.00979 78.2477L8.86829 77.7349C10.6404 80.7017 12.7215 83.4868 15.071 86.0526L14.3335 86.7279C16.7018 89.3142 19.3368 91.6809 22.1984 93.7913L22.7919 92.9864C25.5533 95.0229 28.5305 96.8171 31.6864 98.3345L31.2531 99.2357C34.391 100.744 37.7019 101.984 41.1505 102.922L41.413 101.957C44.7023 102.852 48.1198 103.467 51.6336 103.774L51.5466 104.77C53.2847 104.922 55.0458 105 56.826 105C58.6063 105 60.3674 104.922 62.1055 104.77L62.0185 103.774C65.5323 103.467 68.9498 102.852 72.2391 101.957L72.5016 102.922C75.9502 101.984 79.2611 100.744 82.399 99.2357L81.9657 98.3345C85.1217 96.8171 88.0989 95.0229 90.8602 92.9864L91.4537 93.7912C94.3153 91.6809 96.9503 89.3142 99.3186 86.7279L98.5811 86.0526C100.931 83.4868 103.012 80.7017 104.784 77.7349L105.642 78.2477C107.452 75.2186 108.946 72.0025 110.084 68.6378L109.136 68.3176C110.235 65.069 110.993 61.6802 111.372 58.1873L112.366 58.2953C112.555 56.5538 112.652 54.7873 112.652 53Z" fill="white" stroke="#3D4248" stroke-width="2" stroke-dasharray="10 10"/>
<ellipse cx="56.2885" cy="52.5" rx="48.9135" ry="45.5" fill="#00224C"/>
<path fill-rule="evenodd" clip-rule="evenodd" d="M51.7112 20.4132C49.0606 23.2734 50.9988 27.6135 54.9271 27.6135C56.5288 27.6135 57.1643 27.315 58.2117 26.07C59.8556 24.1167 59.8556 22.5827 58.2117 20.6294C56.4575 18.5446 53.5331 18.4473 51.7112 20.4132ZM50.3914 29.2438C49.961 29.5889 48.1636 31.4685 46.3979 33.4213C43.6947 36.411 42.9979 37.5768 41.9881 40.7968C40.9979 43.9535 40.9011 44.7576 41.4323 45.3977C42.2088 46.3332 43.662 46.409 44.3041 45.5467C44.5605 45.2021 45.1589 43.6395 45.6329 42.0744C46.5193 39.1489 48.1265 36.6333 48.7275 37.2312C48.9141 37.4173 48.8248 39.1103 48.5298 40.9934C48.1471 43.4323 48.1481 46.0062 48.5333 49.9359C49.059 55.2978 49.0315 55.6299 47.5517 61.6895C45.956 68.2207 46.0122 69.3785 47.9535 69.995C49.5948 70.5156 50.737 69.4778 51.355 66.9039C51.6745 65.5726 52.4184 62.4876 53.0084 60.0487C53.6489 57.3981 54.0121 54.5218 53.9108 52.8995C53.812 51.3129 53.9499 50.1842 54.2434 50.1832C55.1473 50.1787 59.9785 52.4315 60.1881 52.9552C60.301 53.2361 60.1721 55.7824 59.9022 58.6125C59.5285 62.5338 59.5571 63.9353 60.0241 64.4976C60.6682 65.2731 62.8754 65.4783 63.8395 64.8518C64.4329 64.466 65.6629 51.1172 65.2134 49.9454C65.0013 49.3921 61.1352 47.4378 58.4987 46.5509C57.9243 46.3578 57.7838 45.7162 57.9258 43.9314L58.1139 41.5683L61.5676 41.9149C65.3554 42.2951 65.9523 41.9049 65.3358 39.4484C65.065 38.3689 64.6536 38.1993 61.3941 37.8191L57.7548 37.3952L57.4553 34.6363C57.2902 33.1189 56.9988 31.3883 56.8077 30.7908C56.2283 28.9815 51.9936 27.9606 50.3914 29.2438ZM35.8929 49.3089C36.709 50.7576 37.9555 52.2369 38.6618 52.597C39.3686 52.9567 39.947 53.4403 39.947 53.6715C39.947 54.0939 46.6833 52.1451 47.2778 51.5506C47.6324 51.196 46.1336 50.5022 40.098 48.2264C34.3303 46.0513 34.092 46.113 35.8929 49.3089ZM39.8216 47.0074C40.1667 47.1469 40.731 47.1469 41.0757 47.0074C41.4208 46.8685 41.1384 46.7546 40.4486 46.7546C39.7589 46.7546 39.477 46.8685 39.8216 47.0074ZM42.8314 48.0964C43.3144 48.6026 43.798 48.9467 43.9063 48.8609C44.2023 48.6277 42.8996 47.177 42.3939 47.177C42.1516 47.177 42.3483 47.5908 42.8314 48.0964ZM33.6787 49.0581C32.1718 52.7746 31.5362 55.216 32.0007 55.503C33.4379 56.3913 43.7549 60.0562 44.0488 59.7828C44.2359 59.6088 44.9517 57.9639 45.6395 56.127L46.89 52.7877L43.7945 53.7749C42.0925 54.3176 40.2951 54.9818 39.801 55.2501C38.8374 55.7743 37.9405 55.4714 37.9405 54.6221C37.9405 54.1395 34.4437 48.1802 34.1607 48.1802C34.0915 48.1802 33.8748 48.575 33.6787 49.0581ZM83.8393 61.0816C86.3595 61.6955 87.4275 64.3351 85.8102 65.9523C84.4764 67.2857 82.6856 66.9295 81.5765 65.1101C80.5116 63.364 80.198 63.5751 81.1556 65.394C82.2748 67.5199 84.4443 67.8911 86.0967 66.2388C88.0435 64.292 86.6184 60.6421 83.9648 60.7791C82.9434 60.8317 82.9314 60.8603 83.8393 61.0816ZM81.572 61.987C81.2229 62.4074 81.0348 62.8488 81.1531 62.9677C81.272 63.086 81.6447 62.7424 81.9813 62.2032C82.7097 61.0369 82.4669 60.909 81.572 61.987ZM70.8256 65.849C69.7602 67.3694 69.845 69.0489 71.0479 70.2518C72.3897 71.5936 73.8419 71.5164 75.3343 70.0235C76.8366 68.5217 76.8733 67.7682 75.5259 66.0557C74.1986 64.3677 71.9327 64.2679 70.8256 65.849ZM71.0654 66.2057C70.2779 67.6779 70.4399 68.9967 71.5294 69.9829C73.8008 72.0381 77.0619 69.0905 75.3714 66.5102C74.329 64.9195 71.8475 64.7444 71.0654 66.2057ZM60.6256 69.5279C58.8062 70.8021 59.2366 73.9949 61.3344 74.7925C63.7 75.6919 66.4826 73.4657 65.7758 71.239C65.0088 68.8222 62.7188 68.0612 60.6256 69.5279ZM49.4779 73.7632C48.9261 74.315 48.4747 75.3308 48.4747 76.0205C48.4747 77.5018 50.0869 79.2811 51.4287 79.2811C53.066 79.2811 54.6612 77.5826 54.6612 75.8389C54.6612 73.0368 51.4784 71.7627 49.4779 73.7632ZM38.4682 77.9994C35.6024 81.0498 40.2384 84.9374 43.2046 81.9713C44.3458 80.8301 44.1536 78.4704 42.8449 77.554C41.2532 76.4389 39.795 76.5868 38.4682 77.9994ZM27.7349 81.7034C26.0881 83.5233 27.4124 87.3071 29.6968 87.3071C32.9207 87.3071 34.3629 82.9344 31.7203 81.1697C30.7045 80.4915 28.5736 80.7764 27.7349 81.7034Z" fill="white"/>
</svg>
