<svg width="114" height="106" viewBox="0 0 114 106" fill="none" xmlns="http://www.w3.org/2000/svg">
<path d="M112.955 53C112.955 51.2127 112.858 49.4462 112.669 47.7047L111.675 47.8127C111.296 44.3198 110.538 40.931 109.439 37.6824L110.387 37.3622C109.249 33.9975 107.755 30.7814 105.945 27.7523L105.087 28.2651C103.315 25.2983 101.234 22.5132 98.8842 19.9474L99.6217 19.2721C97.2534 16.6858 94.6184 14.3191 91.7568 12.2088L91.1633 13.0136C88.4019 10.9771 85.4247 9.18292 82.2688 7.6655L82.7021 6.76427C79.5642 5.25552 76.2533 4.01592 72.8047 3.078L72.5422 4.04295C69.2528 3.14834 65.8354 2.53279 62.3216 2.22573L62.4086 1.22953C60.6705 1.07764 58.9094 1 57.1291 1C55.3489 1 53.5878 1.07764 51.8497 1.22953L51.9367 2.22573C48.4229 2.5328 45.0054 3.14834 41.7161 4.04295L41.4536 3.078C38.005 4.01592 34.6941 5.25552 31.5562 6.76427L31.9895 7.66551C28.8335 9.18292 25.8563 10.9771 23.095 13.0136L22.5015 12.2088C19.6399 14.3191 17.0049 16.6858 14.6366 19.2721L15.3741 19.9474C13.0246 22.5132 10.9435 25.2983 9.17139 28.2651L8.31289 27.7523C6.5035 30.7814 5.00905 33.9975 3.87154 37.3622L4.81887 37.6824C3.7206 40.931 2.96239 44.3198 2.58309 47.8127L1.58893 47.7047C1.39981 49.4462 1.30298 51.2127 1.30298 53C1.30298 54.7873 1.39981 56.5538 1.58893 58.2953L2.58308 58.1873C2.96239 61.6802 3.7206 65.069 4.81887 68.3176L3.87154 68.6378C5.00905 72.0025 6.5035 75.2186 8.31289 78.2477L9.1714 77.7349C10.9435 80.7017 13.0246 83.4868 15.3741 86.0526L14.6366 86.7279C17.0049 89.3142 19.6399 91.6809 22.5015 93.7913L23.095 92.9864C25.8564 95.0229 28.8336 96.8171 31.9895 98.3345L31.5562 99.2357C34.6941 100.744 38.005 101.984 41.4536 102.922L41.7161 101.957C45.0054 102.852 48.4229 103.467 51.9367 103.774L51.8497 104.77C53.5878 104.922 55.3489 105 57.1291 105C58.9094 105 60.6705 104.922 62.4086 104.77L62.3216 103.774C65.8354 103.467 69.2529 102.852 72.5422 101.957L72.8047 102.922C76.2533 101.984 79.5642 100.744 82.7021 99.2357L82.2688 98.3345C85.4248 96.8171 88.402 95.0229 91.1633 92.9864L91.7568 93.7912C94.6184 91.6809 97.2534 89.3142 99.6217 86.7279L98.8842 86.0526C101.234 83.4868 103.315 80.7017 105.087 77.7349L105.945 78.2477C107.755 75.2186 109.249 72.0025 110.387 68.6378L109.439 68.3176C110.538 65.069 111.296 61.6802 111.675 58.1873L112.669 58.2953C112.858 56.5538 112.955 54.7873 112.955 53Z" stroke="white" stroke-width="2" stroke-dasharray="10 10"/>
<ellipse cx="56.5915" cy="52.5" rx="48.9135" ry="45.5" fill="white"/>
<path fill-rule="evenodd" clip-rule="evenodd" d="M52.901 22.6633C52.7553 23.0588 52.3884 24.4055 52.0859 25.6564C51.5377 27.9232 51.5317 27.9316 50.234 28.2665C49.5178 28.4515 48.6677 28.6799 48.3448 28.7742C47.9185 28.8986 47.1684 28.3608 45.604 26.8083L43.4503 24.6709L42.1073 25.417C39.3624 26.9412 38.3606 27.6737 38.5054 28.0507C38.5871 28.2637 38.9653 29.5472 39.3458 30.9031L40.0372 33.3678L38.6399 34.7654L37.2423 36.1626L34.7776 35.4712C33.4218 35.0908 32.1382 34.7126 31.9252 34.6309C31.5483 34.4861 30.8157 35.4879 29.2915 38.2328L28.5454 39.5757L30.6721 41.7188L32.7985 43.8618L32.327 45.6681C32.0675 46.6617 31.8099 47.518 31.755 47.5711C31.6997 47.6242 30.3822 47.9993 28.8272 48.4045L26 49.1412V52.1255V55.1098L28.8272 55.8464C30.3822 56.2516 31.6997 56.6267 31.755 56.6798C31.8099 56.7329 32.0675 57.5892 32.327 58.5828L32.7985 60.3891L30.6721 62.5322L28.5454 64.6752L29.2915 66.0181C30.8157 68.7631 31.5483 69.7648 31.9252 69.62C32.1382 69.5383 33.4218 69.1601 34.7776 68.7797L37.2423 68.0883L38.6452 69.4909L40.0479 70.8938L39.2487 73.667C38.8089 75.1922 38.512 76.5417 38.5887 76.6658C38.7087 76.8599 42.4676 79.0846 43.2319 79.4138C43.3799 79.4776 44.4539 78.5842 45.6184 77.4282L47.7363 75.3269L49.5426 75.7984C50.5362 76.0579 51.3926 76.3155 51.4457 76.3705C51.4987 76.4258 51.8738 77.7433 52.2791 79.2982L53.0157 82.1255H56H58.9843L59.7209 79.2982C60.1262 77.7433 60.5013 76.4258 60.5543 76.3705C60.6074 76.3155 61.4638 76.0579 62.4574 75.7984L64.2637 75.3269L66.3816 77.4282C67.5461 78.5842 68.6201 79.4776 68.7681 79.4138C69.5324 79.0846 73.2913 76.8599 73.4113 76.6658C73.488 76.5417 73.1911 75.1922 72.7513 73.667L71.9521 70.8938L73.3601 69.4856L74.7684 68.0776L77.5416 68.8768C79.0667 69.3166 80.4162 69.6134 80.5403 69.5368C80.7344 69.4168 82.9592 65.6578 83.2884 64.8935C83.3521 64.7456 82.4587 63.6715 81.3027 62.507L79.2015 60.3891L79.673 58.5828C79.9325 57.5892 80.19 56.7329 80.245 56.6798C80.3003 56.6267 81.6178 56.2516 83.1728 55.8464L86 55.1098V52.1255V49.1412L83.1728 48.4045C81.6178 47.9993 80.3003 47.6242 80.245 47.5711C80.19 47.518 79.9325 46.6617 79.673 45.6681L79.2015 43.8618L81.3027 41.7439C82.4587 40.5794 83.3521 39.5054 83.2884 39.3574C82.9592 38.5931 80.7344 34.8342 80.5403 34.7142C80.4162 34.6375 79.0667 34.9344 77.5416 35.3742L74.7684 36.1733L73.3654 34.7707L71.9628 33.3678L72.6542 30.9031C73.0347 29.5472 73.4129 28.2637 73.4946 28.0507C73.6394 27.6737 72.6376 26.9412 69.8927 25.417L68.5497 24.6709L66.4067 26.7976L64.2637 28.924L62.4574 28.4525C61.4638 28.193 60.6074 27.9354 60.5543 27.8804C60.5013 27.8252 60.1262 26.5077 59.7209 24.9527L58.9843 22.1255L56.0754 22.035C53.2921 21.9486 53.1549 21.9759 52.901 22.6633ZM53.1831 26.0098L52.4952 28.7943L49.9284 29.4989L47.3613 30.2035L45.3712 28.0633L43.3812 25.9231L41.7586 26.8168C40.8662 27.3084 40.0343 27.7994 39.9103 27.9081C39.7862 28.0171 40.0334 29.3742 40.4597 30.9244L41.2353 33.7425L39.4262 35.5516L37.6171 37.3608L34.799 36.5852C33.2487 36.1589 31.8916 35.9116 31.7826 36.0357C31.6739 36.1598 31.1829 36.9916 30.6913 37.8841L29.7976 39.5066L31.9378 41.4967L34.078 43.4867L33.3734 46.0538L32.6688 48.6206L29.8843 49.3086L27.0995 49.9969V52.1255V54.2541L29.8843 54.9423L32.6688 55.6303L33.3743 58.1971L34.0799 60.7642L31.9293 62.737L29.7784 64.7098L30.6816 66.3495C31.1785 67.2514 31.678 68.0952 31.792 68.2243C31.9058 68.3537 33.2528 68.0961 34.7851 67.652L37.5712 66.8443L39.397 68.6732L41.2227 70.5024L40.4468 73.3168C40.0199 74.8648 39.7755 76.2235 39.9033 76.3359C40.0315 76.4484 40.8662 76.9425 41.7586 77.4342L43.3812 78.3279L45.3712 76.1877L47.3613 74.0475L49.9284 74.7521L52.4952 75.4567L53.1831 78.2412L53.8714 81.026H56H58.1286L58.8169 78.2412L59.5048 75.4567L62.0716 74.7521L64.6387 74.0475L66.6288 76.1877L68.6188 78.3279L70.2414 77.4342C71.1338 76.9425 71.9697 76.4475 72.0988 76.3334C72.2283 76.2197 71.9707 74.8727 71.5265 73.3403L70.7188 70.5543L72.5738 68.6993L74.4288 66.8443L77.2149 67.652C78.7472 68.0961 80.0942 68.3537 80.208 68.2243C80.322 68.0952 80.8171 67.2593 81.3087 66.3668L82.2024 64.7443L80.0622 62.7543L77.922 60.7642L78.6266 58.1971L79.3312 55.6303L82.1157 54.9423L84.9005 54.2541V52.1255V49.9969L82.1157 49.3086L79.3312 48.6206L78.6266 46.0538L77.922 43.4867L80.0622 41.4967L82.2024 39.5066L81.3087 37.8841C80.8171 36.9916 80.3229 36.157 80.2105 36.0288C80.098 35.901 78.7394 36.1454 77.1913 36.5723L74.377 37.3482L72.5477 35.5224L70.7188 33.6967L71.5265 30.9106C71.9707 29.3782 72.2283 28.0312 72.0988 27.9175C71.9697 27.8035 71.126 27.304 70.2241 26.807L68.5843 25.9039L66.6115 28.0548L64.6387 30.2054L62.0716 29.4998L59.5048 28.7943L58.8169 26.0098L58.1286 23.2249H56H53.8714L53.1831 26.0098ZM53.9581 33.2996C49.4964 33.7796 45.8914 35.5227 42.6442 38.7697C38.9314 42.4827 37.1069 46.8772 37.1069 52.1079C37.1069 55.4883 37.5194 57.2368 39.1042 60.5754C41.3609 65.3299 45.9822 69.097 51.288 70.5071C53.5083 71.0971 58.4917 71.0971 60.712 70.5071C65.8233 69.1485 70.5571 65.3782 72.7658 60.9068C74.3515 57.6967 74.8406 55.6259 74.8406 52.1255C74.8406 50.4841 74.6339 48.3637 74.3817 47.4134C71.9616 38.3085 63.265 32.2988 53.9581 33.2996ZM51.3385 34.858C48.5424 35.5906 46.2015 36.8883 43.9281 38.966C42.4177 40.3466 40.2932 43.0802 40.2932 43.6432C40.2932 43.7566 41.4241 44.2428 42.8063 44.7241C44.1885 45.205 45.3194 45.7171 45.3194 45.8619C45.3194 46.0064 46.1132 46.3749 47.0832 46.6809C48.0536 46.9865 48.9169 47.4178 49.0017 47.6393C49.2583 48.3078 50.9022 48.1337 51.1306 47.4141C51.3932 46.5872 52.068 46.4481 56.1687 46.3752C58.8407 46.3278 59.9402 46.4402 61.0736 46.8778C62.5032 47.4294 62.5799 47.4272 64.6076 46.772C65.748 46.4038 66.6806 45.9891 66.6806 45.8506C66.6806 45.7121 67.8115 45.205 69.1937 44.7241C70.5759 44.2428 71.7068 43.7566 71.7068 43.6432C71.7068 43.0802 69.5823 40.3466 68.0719 38.966C63.5066 34.7936 57.3527 33.283 51.3385 34.858ZM38.8972 46.7066C38.2601 48.8327 37.9149 54.2688 38.3738 54.9436C38.5469 55.1977 38.7432 55.3391 38.8102 55.2577C38.8771 55.1764 40.0667 53.1147 41.4539 50.676L43.9758 46.2423L42.0561 45.5682C41 45.1975 39.9791 44.8953 39.7871 44.8972C39.5952 44.8988 39.1947 45.7133 38.8972 46.7066ZM69.7881 45.5905L68.0267 46.2467L70.5473 50.6782C71.9339 53.1156 73.1229 55.1764 73.1898 55.2577C73.2568 55.3391 73.4531 55.1977 73.6262 54.9436C73.8068 54.6778 73.8825 53.2139 73.804 51.4972C73.6554 48.2431 72.7931 45.1001 72.0209 44.9971C71.7618 44.9628 70.7572 45.2299 69.7881 45.5905ZM43.4204 49.3535C42.6913 50.6189 41.8328 52.0919 41.5124 52.6268L40.9299 53.5994L42.1403 53.9619C42.806 54.1614 43.4254 54.3244 43.5172 54.3244C43.7521 54.3244 47.5183 48.4708 47.5183 48.1058C47.5183 47.9409 47.1297 47.7276 46.6544 47.6317C46.1792 47.5359 45.5556 47.3663 45.2682 47.2551C44.8654 47.0993 44.4423 47.5799 43.4204 49.3535ZM65.6597 47.4788C65.0119 47.65 64.4817 47.9069 64.4817 48.0499C64.4817 48.5685 68.36 54.3238 68.6936 54.3005C68.8824 54.2873 69.4846 54.1108 70.0325 53.9079L71.0283 53.5391L69.184 50.4027C68.1696 48.6778 67.2266 47.2444 67.0887 47.2171C66.9508 47.1901 66.3077 47.3079 65.6597 47.4788ZM52.623 47.6223C51.9951 47.7546 51.9162 47.9616 51.9162 49.4773C51.9162 51.6012 52.4958 51.7454 53.6543 49.9099C54.5845 48.4369 54.625 48.4384 58.078 50.1002C59.4608 50.7653 61.1744 51.9728 62.5708 53.2655C64.7421 55.2759 64.859 55.3391 65.6355 54.9238C66.0794 54.686 66.5119 54.3106 66.5968 54.0898C66.6816 53.8686 66.0637 52.629 65.2237 51.3351C63.2094 48.233 61.8709 47.6305 56.7853 47.5372C54.8848 47.5023 53.0116 47.5406 52.623 47.6223ZM46.8288 51.2657C46.0174 52.5159 45.2672 53.7681 45.1614 54.0483C44.8899 54.767 45.9077 55.0862 46.5674 54.489C47.2287 53.8909 48.2688 53.8717 48.7479 54.4491C48.9483 54.6904 49.3686 54.8208 49.6821 54.7388C49.9953 54.6568 50.475 54.8129 50.7473 55.0853C51.02 55.3579 51.4893 55.581 51.7906 55.581C52.0915 55.581 52.5828 55.8027 52.8822 56.0735C53.3396 56.4876 53.5312 56.5011 54.0809 56.1577C54.6778 55.7851 54.8977 55.9102 56.5928 57.5877C58.3174 59.2944 59.1414 59.6151 59.1414 58.5806C59.1414 58.3501 58.2988 57.3816 57.2691 56.4282C55.7434 55.0158 55.477 54.6282 55.8307 54.3348C56.1756 54.0483 56.7115 54.3964 58.4481 56.0343C60.7234 58.1811 61.3403 58.4949 61.3403 57.5057C61.3403 56.9468 59.5372 55.0677 57.9222 53.9431C57.4347 53.6038 57.2427 53.2428 57.3709 52.9086C57.5452 52.4544 57.6863 52.4792 58.5904 53.1222C59.1527 53.5224 60.4098 54.6844 61.384 55.7047C63.1532 57.5572 64.1675 57.8936 64.1675 56.6277C64.1675 54.9464 55.2718 48.8123 54.816 50.1797C54.4563 51.2588 53.3817 52.1255 52.4031 52.1255C51.037 52.1255 50.5328 51.4865 50.7954 50.087L51.0024 48.9841L49.6529 48.9882C48.3247 48.9923 48.2807 49.0278 46.8288 51.2657ZM39.8368 55.5527C39.5766 56.0553 39.1987 56.5218 38.9971 56.589C38.431 56.7775 39.4485 59.4957 40.9397 61.7779C45.0951 68.1373 52.7867 71.2608 60.0671 69.5446C65.7071 68.2152 70.6482 63.936 72.6831 58.6183C73.323 56.9459 73.3252 56.8846 72.7592 56.2919C72.4397 55.957 72.0313 55.4286 71.8519 55.1176C71.5444 54.5842 71.4294 54.5804 69.8239 55.0513C68.6207 55.4038 68.0053 55.4537 67.7248 55.221C67.1999 54.7853 65.8413 55.8439 65.1505 57.2267C64.7188 58.0906 64.4663 58.2511 63.5393 58.2511C62.9346 58.2511 62.2529 58.428 62.0248 58.6438C61.7964 58.8599 61.3004 59.0365 60.9222 59.0365C60.5443 59.0365 60.0583 59.3192 59.8425 59.6647C59.6267 60.0103 59.1687 60.293 58.8247 60.293C58.4804 60.293 57.9162 60.5757 57.5707 60.9213C56.7681 61.7239 55.9837 61.7173 54.9432 60.8987C54.1906 60.3068 54.0709 60.2924 53.6217 60.7416C53.0691 61.2942 51.7431 61.4035 51.445 60.9213C51.3382 60.7485 50.8362 60.6071 50.3295 60.6071C49.7487 60.6071 49.2637 60.375 49.0161 59.9789C48.8003 59.6333 48.4538 59.3506 48.2459 59.3506C48.0382 59.3506 47.6814 59.1034 47.4527 58.8009C47.2243 58.4983 46.7663 58.1003 46.4352 57.9159C45.8861 57.6106 45.6288 57.2484 45.0081 55.908C44.8915 55.656 44.3132 55.4189 43.7226 55.3809C43.1324 55.3428 42.2512 55.1603 41.7649 54.9753C40.5002 54.4937 40.3629 54.5349 39.8368 55.5527ZM47.0958 55.5272C46.4949 56.1913 46.4151 56.8375 46.934 56.8375C47.3635 56.8375 48.1227 55.8954 48.1365 55.3454C48.151 54.7821 47.6983 54.8613 47.0958 55.5272ZM48.7576 56.8617C47.7715 58.2464 48.4227 58.7606 49.5162 57.4608C49.9724 56.9186 50.3455 56.3446 50.3455 56.185C50.3455 55.5499 49.4069 55.9498 48.7576 56.8617ZM50.6955 57.7824C49.7955 58.9023 49.634 59.6647 50.2969 59.6647C50.6807 59.6647 52.5373 57.0797 52.3595 56.7926C52.0588 56.3057 51.7202 56.5074 50.6955 57.7824ZM52.5816 58.761C51.9988 59.4976 51.9172 59.7898 52.2121 60.0788C52.5056 60.3659 52.7638 60.2365 53.3518 59.5077C53.7699 58.9893 54.1127 58.3887 54.1136 58.1726C54.1164 57.4887 53.3569 57.7805 52.5816 58.761ZM55.2115 58.7324C54.9618 59.5193 56.0088 60.833 56.5965 60.4695C57.1475 60.129 57.0015 59.5155 56.1869 58.7503L55.4311 58.0403L55.2115 58.7324Z" fill="#00224C"/>
</svg>
