<svg width="85" height="85" viewBox="0 0 85 85" fill="none" xmlns="http://www.w3.org/2000/svg">
<circle cx="42.5" cy="42.5" r="42.5" fill="white"/>
<path d="M31.6667 46H28C25.2386 46 23 48.2386 23 51V58C23 60.7614 25.2386 63 28 63H58C60.7614 63 63 60.7614 63 58V51C63 48.2386 60.7614 46 58 46H53.8333C52.2685 46 51 47.2685 51 48.8333C51 50.3981 49.7315 51.6667 48.1667 51.6667H37.3333C35.7685 51.6667 34.5 50.3981 34.5 48.8333C34.5 47.2685 33.2315 46 31.6667 46Z" fill="#DFDF00"/>
<path d="M31 30H55" stroke="#00224C" stroke-width="2" stroke-miterlimit="10" stroke-linecap="round" stroke-linejoin="round"/>
<path d="M31 38H55" stroke="#00224C" stroke-width="2" stroke-miterlimit="10" stroke-linecap="round" stroke-linejoin="round"/>
<path d="M23 46H35V52H51V46H63" stroke="#00224C" stroke-width="2" stroke-miterlimit="10" stroke-linecap="round" stroke-linejoin="round"/>
<path d="M59 22H27C24.7909 22 23 23.7909 23 26V58C23 60.2091 24.7909 62 27 62H59C61.2091 62 63 60.2091 63 58V26C63 23.7909 61.2091 22 59 22Z" stroke="#00224C" stroke-width="2" stroke-miterlimit="10" stroke-linecap="round" stroke-linejoin="round"/>
</svg>
