<svg width="127" height="126" viewBox="0 0 127 126" fill="none" xmlns="http://www.w3.org/2000/svg">
<mask id="mask0_99_125" style="mask-type:alpha" maskUnits="userSpaceOnUse" x="0" y="0" width="127" height="126">
<rect width="126.726" height="125.31" fill="#D9D9D9"/>
</mask>
<g mask="url(#mask0_99_125)">
<path fill-rule="evenodd" clip-rule="evenodd" d="M21.5435 6.02653C21.1449 7.22362 22.8487 9.16157 31.8934 17.8023L42.721 28.1447H65.6672H88.6135L99.5024 38.5457C105.491 44.2667 109.726 48.7818 108.914 48.5793C106.708 48.0288 104.343 49.4877 104.604 51.2372C104.811 52.622 105.184 52.7055 111.173 52.7055H117.523V46.6494C117.523 40.6384 117.509 40.5933 115.759 40.5933C114.251 40.5933 113.944 40.9621 113.642 43.1328L113.29 45.673L102.01 34.8898L90.7293 24.1073H67.7831H44.8361L34.6245 14.3503C29.0078 8.98392 23.8745 4.59326 23.2163 4.59326C22.5587 4.59326 21.8059 5.2379 21.5435 6.02653ZM61.0546 36.9105C44.9264 41.7897 36.3551 58.7636 42.661 73.3352C44.7748 78.2191 46.667 80.3421 48.356 79.7244C49.9448 79.1423 49.6887 77.1741 47.5002 73.1508C45.7738 69.9774 45.5621 68.8759 45.5805 63.1637C45.5988 57.4864 45.826 56.3311 47.5453 53.1859C50.3462 48.0632 53.8851 44.6347 58.7835 42.2998C62.6152 40.4742 63.7518 40.2569 69.4841 40.2575C75.0739 40.2575 76.4447 40.5052 80.1586 42.1807C85.0048 44.3669 89.7522 49.0113 91.9506 53.7148C92.7887 55.5074 93.5091 58.8578 93.7158 61.9269C94.0044 66.2052 93.78 67.884 92.4296 71.5305C90.9318 75.5773 90.8888 76.0402 91.9203 77.024C93.3602 78.3974 94.2598 77.8362 96.0828 74.4286C98.1591 70.546 98.9973 63.992 98.1006 58.6398C95.3519 42.2285 77.7006 31.8752 61.0546 36.9105ZM67.7499 49.7373C67.2913 50.5556 65.6821 52.3435 64.1751 53.7115C59.2795 58.1533 60.9798 62.5964 68.5874 65.2422C70.9361 66.0591 73.0223 67.1344 73.2219 67.6317C74.3091 70.3327 67.8402 71.8064 66.3728 69.1915C65.5678 67.7562 63.2325 67.3767 62.4677 68.5569C61.571 69.9404 62.9129 72.6152 65.1572 73.9166C66.408 74.642 67.4705 75.541 67.5192 75.9144C67.5679 76.2879 67.6469 76.8962 67.6956 77.2663C67.7443 77.6364 68.5712 77.9392 69.5342 77.9392C70.8126 77.9392 71.4038 77.4856 71.7269 76.2569C71.9703 75.3317 72.419 74.5747 72.7245 74.5747C73.0293 74.5747 74.2647 73.6959 75.4697 72.6226C80.0104 68.5771 77.5644 63.2478 70.1635 61.0622C67.6145 60.3092 66.6691 59.6747 66.5061 58.6081C66.0454 55.5862 71.0017 55.062 73.3948 57.8801C74.8277 59.5677 76.9555 58.845 76.9555 56.6709C76.9555 55.1535 75.4951 53.2472 73.3313 51.9404C72.8021 51.6208 72.0183 50.7541 71.5887 50.0139C70.4866 48.115 68.7313 47.9891 67.7499 49.7373ZM98.6946 79.5635C97.6519 80.0823 94.0192 83.2598 90.6214 86.6249L84.4446 92.7429H80.0125H75.5798L75.9833 90.8171C76.5167 88.2762 74.6774 84.9649 71.806 83.2954C69.7451 82.0963 68.1747 81.9813 53.84 81.9792L38.1323 81.9766L26.8539 92.7106C20.651 98.6146 15.5755 103.589 15.5755 103.766C15.5755 104.305 17.7563 106.201 18.3778 106.201C18.6988 106.201 23.5486 101.81 29.1539 96.4439L39.3458 86.6868H54.482C70.3702 86.6868 71.3114 86.8564 71.3114 89.7149C71.3114 92.4455 70.1289 92.7429 59.2626 92.7429C50.9586 92.7429 48.7348 92.9414 48.0371 93.7435C47.558 94.294 47.3499 95.2024 47.5757 95.7622C47.927 96.6363 50.6948 96.7803 67.1637 96.7803H86.3424L93.2847 90.0513C98.3638 85.1284 100.695 83.3223 101.972 83.3223C103.514 83.3223 105.176 84.9306 105.176 86.4237C105.176 86.6983 100.507 91.4113 94.8002 96.8981L84.4241 106.874H64.9109H45.3977L39.1292 112.971C35.6813 116.325 32.8924 119.353 32.9312 119.7C32.97 120.047 33.0498 120.635 33.1076 121.005C33.1655 121.375 33.9281 121.676 34.8009 121.674C35.8422 121.671 38.1535 119.946 41.5216 116.657L46.6557 111.644L66.384 111.445L86.1124 111.248L97.0564 100.825C104.045 94.1688 108.275 89.6092 108.76 88.2083C109.827 85.1237 108.487 81.5688 105.633 79.9081C102.995 78.3745 101.258 78.2884 98.6946 79.5635ZM25.4527 140.108C25.4527 140.622 24.8968 141 24.2181 140.949C23.3715 140.885 22.915 141.423 22.7647 142.662C22.5686 144.278 22.7697 144.463 24.6696 144.411C26.238 144.368 26.8701 143.983 27.0853 142.94L27.3774 141.528L27.4733 142.94C27.5488 144.049 28.0575 144.364 29.8467 144.413C31.0997 144.447 32.3647 144.115 32.6582 143.675C33.0582 143.074 33.1944 143.09 33.2029 143.738C33.2106 144.363 34.47 144.569 37.7633 144.482C41.7763 144.377 42.3478 144.195 42.606 142.945C42.8847 141.593 42.903 141.598 42.9947 143.042C43.0625 144.107 43.5345 144.556 44.5843 144.556C45.73 144.556 45.9918 144.243 45.7082 143.21C45.5057 142.47 45.627 141.864 45.9791 141.864C46.3304 141.864 46.6183 142.446 46.6183 143.156C46.6183 144.373 47.2257 144.446 57.1636 144.419C67.3436 144.391 67.7189 144.34 68.0025 142.959C68.2868 141.576 68.3002 141.58 68.3934 143.042C68.4463 143.875 68.7849 144.556 69.1454 144.556C69.5067 144.556 69.9399 143.875 70.1078 143.042L70.414 141.528L70.5099 143.042C70.5628 143.875 70.9234 144.556 71.3114 144.556C72.2815 144.556 72.2039 142.054 71.2154 141.472C70.2023 140.874 64.6957 140.853 63.6953 141.443C63.2812 141.687 62.752 141.592 62.5185 141.232C61.8363 140.179 60.0231 141.215 60.0231 142.659C60.0231 143.563 59.6322 143.905 58.7884 143.739C58.109 143.605 57.5982 142.977 57.6519 142.344C57.7055 141.71 57.4677 141.192 57.1227 141.192C56.7777 141.192 56.4955 140.737 56.4955 140.182C56.4955 138.812 55.3166 138.908 54.4354 140.35C54.0396 140.998 53.7066 141.264 53.6946 140.941C53.6833 140.618 53.2254 140.708 52.678 141.142C51.9689 141.703 51.5456 141.719 51.2077 141.197C50.9466 140.794 50.1508 140.64 49.4403 140.855C48.7299 141.07 47.9404 140.926 47.6871 140.535C47.4338 140.144 46.8539 140.043 46.3996 140.311C44.9547 141.163 37.1601 141.155 36.5209 140.302C36.0736 139.704 35.838 139.723 35.5607 140.379C35.3173 140.953 34.9166 141.029 34.3775 140.602C33.3411 139.783 31.3925 141.067 30.9085 142.891C30.5924 144.08 30.5466 144.06 30.4732 142.706C30.4111 141.56 29.9624 141.192 28.6276 141.192C27.5298 141.192 26.8638 140.81 26.8638 140.182C26.8638 139.627 26.5463 139.173 26.1583 139.173C25.7702 139.173 25.4527 139.593 25.4527 140.108ZM77.3513 140.365C76.5407 141.138 76.9922 141.995 78.0138 141.621C79.4016 141.113 79.3564 141.795 77.9009 143.329C76.7742 144.517 76.9344 144.561 82.134 144.486L87.5383 144.409V142.198V139.988H82.6427C79.9504 139.988 77.5693 140.157 77.3513 140.365ZM88.8611 140.182C88.3172 142.257 88.7525 144.556 89.6894 144.556C90.5233 144.556 90.7138 143.998 90.4944 142.201C90.3357 140.906 89.9229 139.846 89.5779 139.846C89.2322 139.846 88.9098 139.997 88.8611 140.182ZM91.7418 141.244C91.31 142.013 91.1308 143.073 91.3424 143.599C91.782 144.692 94.5935 144.917 94.5935 143.86C94.5935 143.379 95.0175 143.379 95.9579 143.86C97.9736 144.888 98.121 144.775 98.121 142.201C98.121 139.758 96.5499 138.866 95.7491 140.855C95.5262 141.41 94.9822 141.864 94.5398 141.864C94.0982 141.864 93.9197 141.41 94.1433 140.855C94.772 139.292 92.6441 139.637 91.7418 141.244ZM99.4439 140.182C99.3952 140.367 99.3162 141.442 99.2675 142.571L99.1793 144.623L105.529 144.422L111.879 144.22L112.095 142.089C112.31 139.978 112.282 139.958 109.097 139.958C106.399 139.958 105.882 140.165 105.882 141.247C105.882 141.957 106.199 142.537 106.587 142.537C108.158 142.537 107.163 143.554 105.503 143.645C104.054 143.725 103.868 143.566 104.524 142.813C105.523 141.664 104.881 139.846 103.476 139.846C102.276 139.846 101.29 141.073 101.969 141.722C102.223 141.964 102.726 141.716 103.087 141.172C103.984 139.82 103.941 140.966 103.035 142.582C101.954 144.508 100.943 144.162 100.943 141.864C100.943 140.754 100.626 139.846 100.238 139.846C99.8496 139.846 99.4926 139.997 99.4439 140.182ZM108.701 142.198C109.611 143.122 110.516 143.724 110.713 143.537C111.111 143.157 108.348 140.519 107.552 140.519C107.274 140.519 107.792 141.274 108.701 142.198ZM73.8181 141.807C73.5909 142.158 73.7059 142.622 74.0735 142.838C74.4411 143.055 74.9272 142.945 75.1543 142.595C75.3815 142.244 75.2665 141.78 74.8989 141.564C74.5314 141.347 74.0453 141.457 73.8181 141.807ZM80.4069 142.498C79.1017 143.535 78.9797 143.843 79.8679 143.861C81.0765 143.885 83.0526 142.072 82.4473 141.495C82.2533 141.309 81.3347 141.761 80.4069 142.498ZM85.4217 142.577C85.4217 143.339 85.7392 143.776 86.1273 143.547C86.5153 143.318 86.8328 142.695 86.8328 142.161C86.8328 141.628 86.5153 141.192 86.1273 141.192C85.7392 141.192 85.4217 141.815 85.4217 142.577ZM33.919 142.498C33.919 142.846 34.2364 143.318 34.6245 143.547C35.0125 143.776 35.33 143.49 35.33 142.914C35.33 142.337 35.0125 141.864 34.6245 141.864C34.2364 141.864 33.919 142.149 33.919 142.498ZM49.4403 142.537C49.4403 142.907 49.7769 143.21 50.1875 143.21C50.5981 143.21 50.7385 142.907 50.4986 142.537C50.2587 142.167 49.9229 141.864 49.7515 141.864C49.58 141.864 49.4403 142.167 49.4403 142.537ZM52.9679 142.537C52.9679 142.907 53.4632 143.21 54.0678 143.21C54.6725 143.21 54.9716 142.907 54.7317 142.537C54.4918 142.167 53.9973 141.864 53.6318 141.864C53.2664 141.864 52.9679 142.167 52.9679 142.537ZM61.4341 142.914C61.4341 143.49 61.7516 143.776 62.1397 143.547C62.5277 143.318 62.8452 142.846 62.8452 142.498C62.8452 142.149 62.5277 141.864 62.1397 141.864C61.7516 141.864 61.4341 142.337 61.4341 142.914ZM64.3119 142.93C64.3458 143.714 64.513 143.873 64.7381 143.337C64.942 142.851 64.9166 142.27 64.6823 142.047C64.4481 141.823 64.2816 142.22 64.3119 142.93ZM82.9524 143.21C82.7125 143.58 82.8529 143.883 83.2636 143.883C83.6742 143.883 84.0107 143.58 84.0107 143.21C84.0107 142.84 83.871 142.537 83.6996 142.537C83.5281 142.537 83.1923 142.84 82.9524 143.21Z" fill="white"/>
</g>
</svg>
