<svg width="58" height="58" viewBox="0 0 58 58" fill="none" xmlns="http://www.w3.org/2000/svg">
<g id="icon-box3">
<g id="Group 9">
<rect id="Rectangle 958" width="58" height="58" rx="10" fill="white"/>
</g>
<path id="Vector" fill-rule="evenodd" clip-rule="evenodd" d="M26.965 5.76409C25.8062 6.30205 24.4253 7.72011 23.9496 8.86092C23.4511 10.0562 23.4923 12.4183 24.032 13.5781C24.5706 14.7357 25.9901 16.1152 27.1321 16.5903C28.2437 17.0529 30.5757 17.0529 31.6872 16.5903C32.8292 16.1152 34.2487 14.7357 34.7873 13.5781C35.3684 12.3292 35.3684 9.94289 34.7873 8.69393C34.2487 7.53637 32.8292 6.15692 31.6872 5.68176C30.4907 5.1838 28.1261 5.22497 26.965 5.76409ZM27.8963 6.83397C25.9696 7.51474 24.514 9.90615 24.8705 11.8047C25.2067 13.594 26.578 15.1067 28.2795 15.5642C32.0103 16.5678 35.262 12.4773 33.476 9.02722C32.7738 7.6708 30.7854 6.46742 29.2932 6.4958C29.0371 6.50091 28.4085 6.65302 27.8963 6.83397ZM28.2455 7.87989C27.7105 8.41436 27.6697 8.77975 28.0525 9.61891C28.5459 10.7002 30.2741 10.6988 30.7677 9.61658C31.1042 8.87883 30.897 7.94455 30.3296 7.64126C29.6469 7.27634 28.7466 7.37937 28.2455 7.87989ZM27.2143 10.5711C26.9578 10.8276 26.8486 11.3828 26.8486 12.4318V13.927H29.4097H31.9708V12.4318C31.9708 10.2457 31.2199 9.62379 30.0234 10.8188L29.4097 11.4321L28.7959 10.8188C28.0898 10.1136 27.7291 10.0571 27.2143 10.5711ZM29.1116 12.2262C28.9822 12.9023 29.1172 13.4619 29.4097 13.4619C29.5102 13.4619 29.6455 13.3244 29.71 13.1565C29.8632 12.7576 29.6399 11.6012 29.4097 11.6012C29.3114 11.6012 29.1773 11.8824 29.1116 12.2262ZM28.4783 18.5524C28.4783 19.1203 28.5857 19.2394 29.1768 19.3259C29.8334 19.4222 29.8753 19.382 29.8753 18.6547C29.8753 17.95 29.8129 17.8809 29.1768 17.8809C28.5622 17.8809 28.4783 17.9614 28.4783 18.5524ZM27.8381 20.1281C27.6781 20.1928 27.547 20.4961 27.547 20.8021C27.547 21.6162 26.6353 22.1518 25.7934 21.832C25.1138 21.5739 25.0711 21.5994 24.4926 22.6126C24.3017 22.947 24.3501 23.1522 24.7124 23.5429C25.3808 24.2639 25.4167 24.9647 24.8181 25.6024L24.301 26.1532L24.7543 26.8977C25.1668 27.5752 25.2646 27.6203 25.8444 27.4003C26.6881 27.0798 27.4984 27.5068 27.5929 28.3218C27.6551 28.856 27.7817 28.9372 28.653 29C29.5624 29.0658 29.6425 29.0265 29.6425 28.5127C29.6425 27.6403 30.3715 27.1251 31.3477 27.3082C32.1028 27.4496 32.1996 27.4014 32.5607 26.7037C32.9442 25.9631 32.9405 25.9359 32.4057 25.5329C31.7063 25.0058 31.7028 24.4362 32.3945 23.661C32.9684 23.0175 32.9561 22.9442 32.0532 21.6334C32.0208 21.5866 31.6853 21.6562 31.3072 21.7878C30.5098 22.0655 29.6425 21.6227 29.6425 20.9377C29.6425 20.1518 28.7608 19.7562 27.8381 20.1281ZM27.8646 23.0373C26.0101 23.9341 27.3242 26.769 29.2546 26.0359C30.5356 25.5494 30.5433 23.6089 29.2665 23.028C28.5901 22.72 28.5193 22.7205 27.8646 23.0373ZM14.9054 23.8341C14.5473 24.0281 14.1546 24.4493 14.0323 24.7702C13.9101 25.0912 13.8102 27.2691 13.8102 29.6098V33.8658L12.7534 34.2691C11.3772 34.794 10.4582 35.5846 9.67287 36.9189C8.82654 38.3574 8.76973 40.9631 9.55273 42.4404C10.6114 44.4376 12.511 45.5596 14.8281 45.5558C17.5669 45.5514 19.7292 43.9596 20.4805 41.3945C20.9475 39.8006 20.7699 38.4077 19.901 36.8524C19.1347 35.4806 17.4647 34.2303 16.1094 34.0137L15.2072 33.8695V29.6047C15.2072 25.6264 15.2374 25.3238 15.6575 25.0991C15.9203 24.9586 17.8598 24.8584 20.314 24.8584C22.6274 24.8584 24.5203 24.7719 24.5203 24.6663C24.5203 24.5607 24.2777 24.2467 23.9815 23.9685C23.4709 23.4896 23.2341 23.4634 19.4996 23.4722C16.4312 23.4794 15.4121 23.5596 14.9054 23.8341ZM33.0546 23.8883C32.2204 24.8091 32.4532 24.8584 37.6285 24.8584C41.1751 24.8584 42.6673 24.9379 42.8671 25.1375C43.0638 25.334 43.1465 26.6644 43.1465 29.6361V33.8553L42.2527 34.123C40.1712 34.7459 38.4219 36.8498 38.1128 39.1022C37.7935 41.4294 39.2159 43.9962 41.3838 45.0044C42.7816 45.6547 44.966 45.7468 46.2526 45.2098C51.1418 43.1691 50.9627 36.0149 45.9781 34.2463L44.8031 33.8293L44.7313 29.3244L44.6599 24.8193L43.8995 24.1411L43.139 23.4629H38.2895C33.8869 23.4629 33.4043 23.5022 33.0546 23.8883ZM27.9459 23.8399C27.6497 24.1355 27.7703 25.0261 28.1487 25.3398C28.6795 25.7799 29.2932 25.3212 29.2932 24.4842C29.2932 23.9374 29.1829 23.799 28.7026 23.7429C28.3775 23.705 28.0369 23.7487 27.9459 23.8399ZM32.6692 27.6494C32.5221 27.9238 32.1817 28.1145 31.8388 28.1145C31.1896 28.1145 30.836 28.702 31.2413 29.107C31.5815 29.4468 31.5815 30.1436 31.2413 30.2568C31.0807 30.3103 31.042 30.5471 31.1426 30.8636C31.2672 31.2558 31.4595 31.367 31.9284 31.3186C32.3845 31.2714 32.6108 31.3932 32.781 31.7777C33.0944 32.4864 33.7912 32.4419 34.0755 31.6951C34.2634 31.2016 34.4115 31.1158 34.8753 31.2321C35.6052 31.4151 36.1209 30.6566 35.5747 30.2038C35.1379 29.8414 35.1358 29.4128 35.5691 29.0535C36.0778 28.6318 35.5335 27.8554 34.8494 28.0271C34.4846 28.1185 34.2625 28.0157 34.0772 27.6698C33.7472 27.054 32.994 27.043 32.6692 27.6494ZM32.8022 28.9451C32.601 29.1463 32.4364 29.4528 32.4364 29.6263C32.4364 29.927 33.0399 30.6729 33.2832 30.6729C33.7426 30.6729 34.299 30.0996 34.299 29.6263C34.299 29.3056 34.1042 28.9572 33.8488 28.8204C33.2662 28.509 33.2353 28.5127 32.8022 28.9451ZM33.1573 29.2637C32.8055 29.4809 32.9675 30.2078 33.3677 30.2078C33.7086 30.2078 33.9419 29.5254 33.6876 29.2714C33.571 29.1549 33.3391 29.1514 33.1573 29.2637ZM28.4956 32.1021L28.5396 34.4619L27.4197 34.8864C26.0721 35.3976 24.623 36.7289 24.032 37.9993C23.4923 39.1591 23.4511 41.5212 23.9496 42.7165C24.4253 43.8573 25.8062 45.2754 26.965 45.8133C28.2709 46.4197 30.5894 46.4024 31.8825 45.7773C33.0264 45.224 34.4315 43.7615 34.9037 42.6328C35.3721 41.5126 35.3123 39.1277 34.7873 37.9993C34.1591 36.6487 32.6769 35.3343 31.232 34.8464L29.9917 34.4273L29.9254 32.0849L29.859 29.7426H29.1554H28.4518L28.4956 32.1021ZM13.4745 35.4285C11.3972 36.1914 10.3255 37.6602 10.3255 39.7436C10.3255 41.3501 10.9928 42.5997 12.3658 43.5635C13.6342 44.4541 15.5068 44.5478 16.9534 43.7931C19.1327 42.656 20.0258 39.8008 18.8744 37.6504C17.8537 35.7437 15.3834 34.7273 13.4745 35.4285ZM42.6541 35.4022C40.4378 36.2212 39.2895 37.9216 39.4715 40.1148C39.6778 42.5986 41.5686 44.2864 44.1274 44.2711C45.2224 44.2643 45.6335 44.1392 46.4536 43.5635C47.9534 42.5107 48.5378 41.3454 48.4436 39.5964C48.3853 38.5207 48.2112 37.9355 47.7353 37.2169C46.6692 35.6074 44.3451 34.7775 42.6541 35.4022ZM27.8963 36.1393C25.9696 36.8201 24.514 39.2115 24.8705 41.11C25.2067 42.8993 26.578 44.412 28.2795 44.8695C32.0103 45.8731 35.262 41.7827 33.476 38.3325C32.7738 36.9761 30.7854 35.7728 29.2932 35.8011C29.0371 35.8062 28.4085 35.9584 27.8963 36.1393ZM43.1952 36.7359C41.1563 37.1668 40.1744 39.6397 41.3451 41.3954C42.5244 43.164 44.5553 43.4021 46.1339 41.9569C46.9376 41.2212 46.9881 41.0914 46.9881 39.7659C46.9881 38.5016 46.9143 38.2832 46.2692 37.6388C45.4578 36.8282 44.3276 36.4963 43.1952 36.7359ZM28.0292 37.5801C25.1573 39.088 25.8774 43.2186 29.0807 43.6105C30.7824 43.8185 32.3659 42.5341 32.5822 40.77C32.8795 38.3439 30.1787 36.4514 28.0292 37.5801ZM43.5425 37.3322C43.4529 37.422 43.3807 38.0797 43.3821 38.794C43.3849 40.0195 43.4305 40.122 44.1937 40.6158C45.1584 41.2398 45.3777 41.2624 45.5719 40.757C45.7381 40.3237 45.7625 40.3607 45.0794 40.006C44.6685 39.7925 44.5539 39.5003 44.4974 38.523C44.4468 37.6469 44.326 37.2866 44.0664 37.2376C43.868 37.1999 43.6324 37.2424 43.5425 37.3322ZM28.944 38.1758C28.944 38.337 28.7345 38.5996 28.4783 38.7593C27.6683 39.2645 27.883 40.1332 28.9522 40.6781C30.0308 41.2277 29.9745 41.6043 28.8139 41.6043C28.2569 41.6043 28.0127 41.7106 28.0127 41.9532C28.0127 42.145 28.1731 42.302 28.3692 42.302C28.5654 42.302 28.7861 42.459 28.8597 42.6509C29.0306 43.0956 29.6425 43.1077 29.6425 42.6665C29.6425 42.4832 29.8518 42.2669 30.1077 42.186C30.6672 42.0085 30.9633 41.0265 30.5922 40.5798C30.4455 40.4032 30.0108 40.1285 29.626 39.9695C28.7433 39.6041 28.8767 39.1433 29.8425 39.2212C30.6814 39.2889 30.8844 38.7105 30.1081 38.4644C29.852 38.3833 29.6425 38.2193 29.6425 38.1C29.6425 37.9807 29.4853 37.883 29.2932 37.883C29.1012 37.883 28.944 38.0148 28.944 38.1758ZM16.3713 39.8762C16.3713 41.5687 16.3916 41.6338 16.8952 41.5624C17.376 41.494 17.4246 41.3491 17.4875 39.8018C17.5552 38.1325 17.5499 38.1156 16.9636 38.1156C16.3813 38.1156 16.3713 38.1451 16.3713 39.8762ZM14.9744 40.5577C14.9744 41.4491 15.0433 41.6043 15.44 41.6043C15.8367 41.6043 15.9057 41.4491 15.9057 40.5577C15.9057 39.6662 15.8367 39.511 15.44 39.511C15.0433 39.511 14.9744 39.6662 14.9744 40.5577ZM11.9911 40.7321C12.0468 41.3087 12.1746 41.488 12.5297 41.488C12.8847 41.488 13.0125 41.3087 13.0682 40.7321C13.1338 40.0527 13.0794 39.9762 12.5297 39.9762C11.98 39.9762 11.9255 40.0527 11.9911 40.7321ZM13.461 40.9065C13.2461 41.254 13.545 41.6043 14.0568 41.6043C14.3534 41.6043 14.5087 41.4445 14.5087 41.1391C14.5087 40.6458 13.7294 40.4728 13.461 40.9065Z" fill="#545454"/>
</g>
</svg>
