<svg width="95" height="120" viewBox="0 0 95 120" fill="none" xmlns="http://www.w3.org/2000/svg">
<path id="Vector" fill-rule="evenodd" clip-rule="evenodd" d="M22.8803 1.74135C22.319 2.30203 21.8598 3.62983 21.8598 4.69257C21.8598 5.94307 21.0315 7.05254 19.5118 7.83834C17.3959 8.93082 16.9648 8.8909 15.1653 7.43482C12.4669 5.25241 11.5374 5.38578 8.67748 8.36844L6.23339 10.917L8.18764 13.5582C10.5858 16.7991 9.67927 19.7189 5.98761 20.6448C2.70416 21.468 1.4498 22.6624 1.4498 24.968C1.4498 28.3457 2.37505 29.5427 5.42549 30.1144C9.56616 30.89 10.9523 33.9559 8.39344 36.677C6.00888 39.2128 6.06926 39.8686 8.93771 42.6142C11.7951 45.3488 12.0052 45.3684 15.0726 43.1868C18.1384 41.0061 21.4022 42.1496 21.6795 45.5018C21.9431 48.6824 23.3829 49.994 26.611 49.994C29.5858 49.994 31.2143 48.2584 31.2143 45.0889C31.2143 44.1748 32.1668 43.0373 33.405 42.4732C35.2598 41.6296 35.9282 41.7384 37.7719 43.1868C40.6437 45.444 41.7935 45.3446 43.9085 42.6584C46.0116 39.9875 46.1298 38.3157 44.3541 36.3558C42.4687 34.2745 43.5513 30.4551 46.026 30.4551C49.3903 30.4551 50.9253 28.5997 50.6234 24.8992C50.3708 21.8104 50.0936 21.4723 47.2336 20.7663C43.6636 19.8854 42.4381 16.8483 44.4783 13.9387C46.191 11.4964 45.9588 9.78289 43.6177 7.58603C41.4636 5.56503 39.0475 5.67887 37.2115 7.88931C35.5923 9.83811 31.2143 7.69392 31.2143 4.95338C31.2143 2.04802 29.7491 0.721924 26.5371 0.721924C25.0871 0.721924 23.4415 1.18066 22.8803 1.74135ZM25.2614 6.10362C25.2614 9.13046 24.4229 10.9161 23.0019 10.9161C22.3275 10.9161 20.6853 11.4794 19.3519 12.1675C17.1221 13.3194 16.7479 13.277 14.6567 11.634C11.8402 9.42099 9.88507 10.6706 12.4848 13.0221C14.5828 14.9182 14.6006 15.4534 12.7178 20.068C11.6565 22.6692 10.6198 23.8501 9.10354 24.1831C4.79448 25.1294 4.43561 25.6205 7.62467 26.2058C9.38418 26.5286 10.926 26.9474 11.0518 27.1369C11.9626 28.5114 14.206 34.1216 14.206 35.0246C14.206 35.6371 13.4313 36.8384 12.4848 37.6938C11.3257 38.7421 11.045 39.5305 11.6233 40.1082C12.2025 40.6867 13.1796 40.3129 14.6168 38.9639C16.4265 37.2657 17.0422 37.1094 18.6673 37.9376C19.7218 38.4754 21.6361 39.296 22.9228 39.7616C24.866 40.4641 25.2614 41.1089 25.2614 43.575C25.2614 47.3308 27.5839 46.889 27.9768 43.0585C28.1962 40.9245 28.8927 40.233 32.3063 38.7625L36.3747 37.0091L38.4684 38.974C41.1582 41.4988 42.1915 40.4853 40.2594 37.2181C38.9599 35.0204 38.9046 34.2711 39.8401 31.5093C41.3632 27.0111 41.9457 26.5396 46.3092 26.2729C48.215 26.1557 47.4267 24.5084 45.4588 24.4957C42.5504 24.4753 41.6583 23.5714 40.1403 19.1055C38.8732 15.3778 38.8681 14.8724 40.0833 13.5318C41.4057 12.0715 41.8879 10.0666 40.9159 10.0666C40.6386 10.0666 39.4498 10.8227 38.2736 11.747C36.5456 13.1045 35.7947 13.2455 34.3626 12.4793C33.3872 11.9585 31.6106 11.2712 30.4132 10.9535C28.7617 10.5143 28.1358 9.68944 27.8127 7.52742C27.3033 4.1132 25.2614 2.974 25.2614 6.10362ZM23.5606 12.3858C20.3792 12.9592 15.8814 16.7167 14.5411 19.921C12.904 23.8339 13.058 27.3909 15.0301 31.2528C20.7551 42.4639 38.0823 39.2688 39.4957 26.741C40.4915 17.9187 32.5512 10.7649 23.5606 12.3858ZM20.7194 17.7582C19.4982 18.7173 18.0627 20.9558 17.5303 22.733C15.1398 30.704 24.4051 37.8493 31.2373 33.3044C34.6823 31.0132 35.4664 29.4977 35.4664 25.1303C35.4664 21.6753 35.0497 20.5633 32.9807 18.4964C29.846 15.3651 24.1976 15.0244 20.7194 17.7582ZM62.7095 25.3019C62.2256 26.2058 61.8293 27.7443 61.8293 28.7212C61.8293 29.8672 61.018 30.8051 59.5417 31.3658C57.6767 32.0743 56.8186 31.9128 54.8984 30.4959C51.9092 28.2871 51.7689 28.2998 48.9072 31.0387C46.0677 33.7563 45.9767 34.6305 48.2337 37.4967C50.5264 40.4089 49.1675 43.7118 45.3414 44.5282C41.6923 45.3072 40.5689 46.4039 40.5689 49.1878C40.5689 52.2299 42.5835 54.2416 45.6289 54.2416C47.487 54.2416 48.2541 54.8142 49.0867 56.8233C50.0417 59.1272 49.9618 59.6131 48.34 61.3385C46.0073 63.8182 46.0439 65.3907 48.4897 67.6861C50.9125 69.9594 53.4459 70.0477 55.3678 67.9256C56.6026 66.563 57.2039 66.4619 59.3265 67.263C61.2059 67.9715 61.8293 68.7522 61.8293 70.3986C61.8293 73.4008 63.3116 74.63 66.9318 74.63C70.552 74.63 72.0343 73.4008 72.0343 70.3986C72.0343 67.2103 76.0602 65.7577 78.7857 67.963C81.3701 70.0537 83.2589 69.9424 85.493 67.5671C87.7882 65.1256 87.8529 62.702 85.6724 60.8373C84.2548 59.6241 84.1391 59.021 84.9053 56.8258C85.6571 54.6723 86.2609 54.2416 88.5306 54.2416C91.9706 54.2416 93.2947 52.9248 93.2947 49.503C93.2947 46.4005 92.0743 45.1203 88.4209 44.3906C86.7779 44.0618 85.476 43.0874 84.8509 41.7171C84.0166 39.8881 84.1306 39.2816 85.6052 37.7142C87.9558 35.2141 87.7891 33.3154 85.0031 30.8662C82.1185 28.3296 81.5598 28.299 79.1659 30.546C76.4641 33.0809 72.5828 31.816 72.1721 28.2659C71.7579 24.697 70.5605 23.6589 66.8578 23.6589C64.4971 23.6589 63.3456 24.1151 62.7095 25.3019ZM65.509 30.1875C64.8755 32.8652 64.1935 33.5524 60.7909 34.9482C56.8187 36.5759 56.8084 36.5759 54.2785 34.7757C51.0613 32.4871 49.8053 33.9882 52.5207 36.8757C54.4434 38.9197 54.4434 38.929 52.8736 42.5471C50.6574 47.6553 50.0332 48.295 47.2685 48.295C43.5581 48.295 44.082 50.677 47.8638 51.0049C50.6013 51.2419 51.0843 51.6778 52.6686 55.3477L54.4307 59.4262L52.6023 61.8966C51.5963 63.255 50.7739 64.5734 50.7739 64.8266C50.7739 65.8842 52.9237 65.1605 54.6824 63.509L56.5754 61.7335L60.9032 63.7171C63.5922 64.9489 65.231 66.2385 65.231 67.122C65.231 69.4599 66.1868 71.232 67.448 71.232C68.221 71.232 68.6326 70.2584 68.6326 68.4269C68.6326 65.8537 68.9958 65.4688 73.0471 63.7596L77.4616 61.8966L79.3819 63.6984C80.507 64.7544 81.8668 65.2836 82.6645 64.9778C83.8253 64.5327 83.7054 64.1088 81.8557 62.1158C80.6609 60.8288 79.7807 59.5808 79.8981 59.3413C80.0163 59.1017 80.8352 57.0917 81.7171 54.8745C83.2402 51.0457 83.4843 50.8435 86.5798 50.8435C89.1285 50.8435 89.7331 50.5657 89.3504 49.5692C89.0809 48.8684 88.1114 48.295 87.1946 48.295C85.0397 48.295 82.2393 46.7905 82.2393 45.6326C82.2393 45.1356 81.6125 43.4094 80.8463 41.7962C79.4763 38.9129 79.4916 38.8228 81.7656 36.4518C84.6068 33.4896 82.9842 32.4175 79.5196 34.9677C77.2261 36.6549 77.2218 36.6549 73.1415 34.8964C69.4677 33.3137 69.0315 32.8312 68.7942 30.0966C68.4455 26.0826 66.4683 26.137 65.509 30.1875ZM62.3557 36.3873C57.4327 37.9478 53.3251 43.8095 53.3251 49.2753C53.3251 57.3636 62.2851 64.7994 69.5298 62.7232C81.6457 59.2521 84.464 45.2945 74.5328 37.9461C72.0547 36.112 65.765 35.3075 62.3557 36.3873ZM60.7297 41.5124C53.9672 46.8261 57.2379 57.9217 65.9096 59.0839C71.638 59.851 77.1368 55.0036 77.1368 49.1861C77.1368 46.6554 74.9657 42.7111 72.7002 41.1259C69.9423 39.1958 63.4085 39.4073 60.7297 41.5124ZM78.2389 75.9409L71.803 82.3479L70.1362 80.5605C67.4701 77.7019 64.9197 77.1786 53.6543 77.1786C42.5045 77.1786 42.9373 77.2856 33.3735 72.1809C29.0738 69.8855 27.3152 69.9195 22.4287 72.3907C20.2448 73.4951 18.4581 74.0685 18.4581 73.665C18.4581 71.9957 15.0573 73.1859 7.95208 77.3417C3.8114 79.7645 0.238806 82.2256 0.0142965 82.8109C-0.341177 83.7369 5.957 95.298 16.1526 112.434C21.5179 121.451 20.8486 121.069 26.168 118.166C37.5066 111.978 39.0093 110.94 38.6164 109.561C37.4368 105.417 36.5881 105.664 53.5616 105.213L69.5307 104.788L82.2631 91.9891C93.3993 80.795 94.9955 78.8462 94.9955 76.4472C94.9955 72.615 91.7639 69.5329 87.7474 69.5329C85.0567 69.5329 83.8721 70.3315 78.2389 75.9409ZM77.6751 81.7567C72.8337 86.6116 68.0782 91.0079 67.1078 91.5261C65.0192 92.6424 48.3264 92.7783 46.6103 91.6935C45.958 91.2806 45.6544 90.3419 45.9359 89.6088C46.3551 88.5171 48.3273 88.2317 56.8067 88.0363C66.6273 87.8103 67.2014 87.6999 67.8622 85.9108C69.2407 82.1814 67.0713 81.4262 54.9826 81.4262C43.3302 81.4262 39.8401 80.6251 33.8591 76.5797C30.4668 74.2851 26.7233 74.1373 23.0197 76.1524L20.3528 77.6034L24.8745 85.249C27.3611 89.4541 30.6658 95.1017 32.2187 97.7998C34.565 101.878 35.3287 102.607 36.742 102.125C37.6775 101.804 45.0387 101.509 53.0998 101.466L67.7558 101.39L78.8801 90.3461C91.4016 77.916 92.0463 77.0614 90.7434 74.63C89.04 71.4503 86.6623 72.7467 77.6751 81.7567ZM13.763 78.2048C12.8369 78.6916 10.2516 80.236 8.01756 81.636L3.95512 84.1812L5.80052 87.2641C6.81592 88.9589 10.8835 95.9852 14.8396 102.877C18.7957 109.769 22.4381 115.407 22.9338 115.407C23.4296 115.407 26.2386 114.003 29.175 112.287L34.5148 109.166L32.3114 105.278C31.0987 103.14 29.0704 99.6696 27.8033 97.567C26.5362 95.4645 23.5079 90.2153 21.074 85.9023C18.6401 81.5901 16.378 77.8939 16.0472 77.69C15.7164 77.4853 14.6882 77.7172 13.763 78.2048Z" fill="white"/>
</svg>
