<svg cache-id="431ab14f5e5a4d069c0e4b52a2532d0f" id="e4BSs6Nvpj21" xmlns="http://www.w3.org/2000/svg" xmlns:xlink="http://www.w3.org/1999/xlink" viewBox="0 0 59 57" shape-rendering="geometricPrecision" text-rendering="geometricPrecision"><style><![CDATA[#e4BSs6Nvpj23_tr {animation: e4BSs6Nvpj23_tr__tr 1500ms linear infinite normal forwards}@keyframes e4BSs6Nvpj23_tr__tr { 0% {transform: translate(31.073856px,55.431171px) rotate(106.002331deg)} 33.333333% {transform: translate(31.073856px,55.431171px) rotate(0deg)} 66.666667% {transform: translate(31.073856px,55.431171px) rotate(0deg)} 100% {transform: translate(31.073856px,55.431171px) rotate(108.322428deg)}}]]></style><path d="M33.6187,4.69481c-.9365.52829-1.777,1.03257-2.6414,1.53685C23.7732,10.386,16.5692,14.5643,9.3412,18.6946c-.38421.2161-.52829.4803-.52829.9365.02401,3.1938.02401,6.3876,0,9.5814c0,.7924.26415,1.2727.96054,1.6569c1.72895.9365,3.40985,1.9691,5.11485,2.9296.7444.4323,1.1046.2161,1.1046-.6243c0-3.1218,0-6.2675,0-9.3893c0-.4322.1201-.6723.5043-.8884c7.9724-4.5866,15.9209-9.1732,23.8693-13.78374.3362-.19211.5523-.21611.8885-.024c2.3293,1.36874,4.6586,2.71354,7.0119,4.03424.8885.5043,1.3688,1.2247,1.3688,2.2333c0,4.2743,0,8.5487,0,12.8231c0,.072-.0241.1441-.0241.1681-2.1131-.3842-4.2503-.7925-6.4596-1.2007c0-.1681,0-.4562,0-.7444-.048-1.0086-.4802-1.777-1.4168-2.2092-.9125-.4323-1.825-.3602-2.6174.2881-3.0017,2.4974-6.0034,4.9708-8.957,7.5162-1.4888,1.2967-1.3207,3.554.3122,4.7547c2.4253,1.801,4.8507,3.578,7.276,5.355.4803.3602.9366.6963,1.4408,1.0325.8165.5764,1.681.6484,2.5695.2161.9125-.4562,1.3447-1.2246,1.3687-2.2332c0-.2882,0-.5763,0-.9365c2.2333.2641,4.2264.9845,5.9553,2.5454-.3361.2401-.6003.4563-.8884.6243-7.3241,4.2264-14.6482,8.4528-21.9723,12.7031-.9845.5763-1.897.5523-2.8816-.024-7.276-4.2023-14.5521-8.4047-21.82816-12.583C0.480268,42.8521,0,42.0596,0,40.8349c.024013-8.3806.024013-16.7853,0-25.166c0-1.2247.480268-2.0171,1.53686-2.6174C8.81291,8.87312,16.089,4.67078,23.365,0.444428c.9846-.576321,1.8971-.600321,2.8816-.024C28.672,1.83722,31.0973,3.22999,33.6187,4.69481Z" fill="#060202"/><g id="e4BSs6Nvpj23_tr" transform="translate(31.073856,55.431171) rotate(106.002331)"><path d="M46.8505,55.3625c.3602-.2161.6484-.3602.9365-.5523c1.825-1.1046,3.3619-2.5454,4.3224-4.4905c1.705-3.4579.5523-7.5402-2.8095-9.8695-2.1372-1.4888-5.2349-2.3773-8.0205-2.2333c0,.7205,0,1.4409,0,2.1372c0,.2162.048.4323,0,.6484-.048.2401-.1441.5523-.3122.6243-.1921.0961-.5523.0241-.7444-.096-1.3207-.9365-2.6174-1.8971-3.9142-2.8576-1.5128-1.1046-3.0257-2.2092-4.5145-3.3138-.9365-.6964-.9605-1.4408-.072-2.1853c2.7855-2.3533,5.5711-4.6826,8.3806-7.0119.2162-.1681.6244-.3362.8165-.2401s.3362.5043.3602.7684c.048.7925.024,1.5609.024,2.4014c1.0086.072,1.9691.096,2.9537.1921c3.9141.4082,7.5402,1.5849,10.4938,4.3224c5.307,4.9227,5.2109,12.9432-.1921,17.962-2.0411,1.897-4.4425,3.0737-7.108,3.7941-.12.024-.2401.048-.3602.048-.048.0481-.096.024-.2401-.048Z" transform="translate(-31.073856,-55.431171)" fill="#060202"/></g></svg>