<svg width="40" height="40" viewBox="0 0 40 40" fill="none" xmlns="http://www.w3.org/2000/svg">
<g id="location-icon">
<circle id="Ellipse 1" cx="20" cy="20" r="19.5" stroke="#00224C"/>
<path id="Vector" fill-rule="evenodd" clip-rule="evenodd" d="M19.713 8.97446C18.0418 9.13866 16.6519 9.7804 15.5003 10.9194C15.2608 11.1563 14.9551 11.4987 14.8209 11.6804C13.3421 13.6818 13.0473 16.2326 14.0343 18.4878C14.2181 18.9077 14.3528 19.1309 15.5804 21.0496C16.1932 22.0074 16.6808 22.8037 16.6639 22.8191C16.647 22.8346 16.5039 22.8686 16.3458 22.8947C14.7997 23.1502 13.1312 23.7347 12.2347 24.3349C10.9107 25.2212 10.6239 26.4934 11.5085 27.5553C12.2764 28.4771 14.1025 29.252 16.4279 29.6431C20.2273 30.2819 24.8005 29.8776 27.3237 28.6796C28.6407 28.0543 29.2881 27.3953 29.4367 26.5285C29.5698 25.7519 29.0941 24.9043 28.1948 24.3158C27.2902 23.7238 25.6287 23.1462 24.1069 22.8947C23.9488 22.8686 23.8058 22.8347 23.789 22.8194C23.7723 22.8041 24.2776 21.9801 24.9119 20.9883C26.1764 19.0113 26.3086 18.7858 26.5232 18.2416C27.2617 16.3692 27.1145 14.1709 26.1358 12.4572C25.0723 10.595 23.3212 9.36855 21.2498 9.03496C20.954 8.98734 19.9745 8.94878 19.713 8.97446ZM19.4461 10.241C18.8562 10.3276 18.373 10.483 17.783 10.7758C16.6604 11.3329 15.8368 12.1493 15.2768 13.2601C14.7272 14.3504 14.5513 15.7045 14.8065 16.8812C14.9831 17.6955 15.1886 18.1557 15.7993 19.1042C16.0321 19.4658 17.1188 21.1683 18.2142 22.8877C19.3096 24.6071 20.2151 26.0138 20.2263 26.0137C20.2663 26.0135 25.0526 18.4842 25.2057 18.1806C25.8587 16.8866 25.9381 15.2714 25.4199 13.8236C24.7874 12.0563 23.1913 10.6837 21.3242 10.3013C20.7835 10.1906 19.9678 10.1644 19.4461 10.241ZM19.8362 12.7061C19.7911 12.7166 19.6533 12.7456 19.5301 12.7706C18.6372 12.9517 17.7681 13.6896 17.3863 14.5908C17.2178 14.9883 17.1679 15.2554 17.1679 15.7599C17.1679 16.2644 17.2178 16.5315 17.3863 16.929C17.7667 17.8267 18.5763 18.518 19.5283 18.7581C19.8215 18.8321 20.6312 18.8321 20.9244 18.7581C21.8764 18.518 22.686 17.8267 23.0664 16.929C23.2349 16.5315 23.2848 16.2644 23.2848 15.7599C23.2848 15.4931 23.26 15.1901 23.2277 15.0625C22.9492 13.9603 22.0887 13.0835 20.986 12.7786C20.7781 12.7211 19.9871 12.6712 19.8362 12.7061ZM19.8612 13.9583C18.9285 14.1413 18.2569 15.1005 18.4111 16.0297C18.5446 16.8344 19.1507 17.4399 19.9562 17.5733C21.1436 17.7698 22.2384 16.6762 22.0416 15.49C21.8682 14.4448 20.8888 13.7567 19.8612 13.9583ZM17.2287 23.992C15.5434 24.2675 14.6749 24.4909 13.8078 24.872C12.9954 25.2291 12.3675 25.722 12.2575 26.0888C12.1384 26.4858 12.4146 26.8628 13.1531 27.3117C14.2119 27.9552 15.9673 28.4115 18.2963 28.6485C19.0948 28.7298 21.5175 28.716 22.3822 28.6253C25.1204 28.338 27.1631 27.6655 27.9744 26.784C28.3387 26.3881 28.3107 26.0816 27.8704 25.6464C27.1065 24.8912 25.4039 24.2914 23.1625 23.9877L22.9982 23.9654L21.8469 25.7793C21.014 27.0916 20.6574 27.6189 20.5576 27.6861C20.3702 27.8122 20.0825 27.8122 19.8951 27.6861C19.7953 27.6189 19.4381 27.091 18.6058 25.7807C17.8936 24.6595 17.431 23.9695 17.3929 23.9718C17.359 23.9737 17.2851 23.9828 17.2287 23.992Z" fill="#00224C"/>
</g>
</svg>
