<svg width="40" height="40" viewBox="0 0 40 40" fill="none" xmlns="http://www.w3.org/2000/svg">
<g id="mail-icon">
<circle id="Ellipse 1" cx="20" cy="20" r="19.5" stroke="white"/>
<path id="Vector" fill-rule="evenodd" clip-rule="evenodd" d="M11.1138 13.1077C10.0514 13.5436 10 13.844 10 19.6112C10 22.8956 10.0832 25.134 10.2142 25.3785C10.7479 26.375 11.054 26.4056 20.5 26.4056C29.946 26.4056 30.2521 26.375 30.7858 25.3785C30.917 25.1338 31 22.8846 31 19.5767V14.1744L30.4983 13.5916L29.9968 13.0088L20.778 12.9668C15.7078 12.9436 11.359 13.0071 11.1138 13.1077ZM11.4554 13.7067C11.4554 13.9642 19.3681 21.218 19.9365 21.4818C20.2449 21.6249 20.5961 21.6346 20.9325 21.5098C21.4968 21.3002 29.5446 14.0134 29.5446 13.7119C29.5446 13.608 25.6092 13.528 20.5 13.528C15.5255 13.528 11.4554 13.6084 11.4554 13.7067ZM10.7529 14.299C10.5826 14.4691 10.5851 24.8436 10.7554 25.014C10.925 25.1834 16.5495 19.9433 16.5495 19.6158C16.5495 19.2926 10.9215 14.1306 10.7529 14.299ZM27.2574 16.7858C25.7136 18.2069 24.4505 19.4806 24.4505 19.6164C24.4505 19.9348 30.0142 25.1473 30.2203 25.0218C30.306 24.9697 30.3762 22.5548 30.3762 19.6552C30.3762 16.7557 30.306 14.3427 30.2203 14.2928C30.1346 14.243 28.8012 15.3648 27.2574 16.7858ZM14.3008 22.7845C12.7358 24.2199 11.4554 25.4817 11.4554 25.5885C11.4554 25.7056 15.0323 25.7824 20.5 25.7824C25.4745 25.7824 29.5446 25.7031 29.5446 25.6061C29.5446 25.4632 26.1864 22.2694 24.2047 20.5274C23.7521 20.1294 23.7486 20.1307 22.5728 21.0874C20.726 22.5903 20.2752 22.5911 18.4378 21.0961C17.8149 20.5893 17.2695 20.1745 17.2257 20.1745C17.182 20.1745 15.8657 21.3491 14.3008 22.7845Z" fill="white"/>
</g>
</svg>
