<svg width="115" height="106" viewBox="0 0 115 106" fill="none" xmlns="http://www.w3.org/2000/svg">
<path d="M113.029 53C113.029 51.2127 112.932 49.4462 112.743 47.7047L111.749 47.8127C111.37 44.3198 110.612 40.931 109.513 37.6824L110.461 37.3622C109.323 33.9975 107.829 30.7814 106.019 27.7523L105.161 28.2651C103.389 25.2983 101.308 22.5132 98.958 19.9474L99.6955 19.2721C97.3273 16.6858 94.6923 14.3191 91.8307 12.2088L91.2372 13.0136C88.4758 10.9771 85.4986 9.18292 82.3427 7.6655L82.776 6.76427C79.6381 5.25552 76.3271 4.01592 72.8785 3.078L72.6161 4.04295C69.3267 3.14834 65.9093 2.53279 62.3954 2.22573L62.4825 1.22953C60.7443 1.07764 58.9833 1 57.203 1C55.4227 1 53.6617 1.07764 51.9235 1.22953L52.0106 2.22573C48.4967 2.5328 45.0793 3.14834 41.7899 4.04295L41.5275 3.078C38.0789 4.01592 34.7679 5.25552 31.63 6.76427L32.0633 7.66551C28.9074 9.18292 25.9302 10.9771 23.1688 13.0136L22.5753 12.2088C19.7137 14.3191 17.0787 16.6858 14.7105 19.2721L15.448 19.9474C13.0984 22.5132 11.0174 25.2983 9.24525 28.2651L8.38674 27.7523C6.57735 30.7814 5.0829 33.9975 3.94539 37.3622L4.89272 37.6824C3.79445 40.931 3.03625 44.3198 2.65694 47.8127L1.66278 47.7047C1.47367 49.4462 1.37683 51.2127 1.37683 53C1.37683 54.7873 1.47367 56.5538 1.66278 58.2953L2.65694 58.1873C3.03625 61.6802 3.79445 65.069 4.89272 68.3176L3.94539 68.6378C5.0829 72.0025 6.57736 75.2186 8.38675 78.2477L9.24525 77.7349C11.0174 80.7017 13.0984 83.4868 15.448 86.0526L14.7105 86.7279C17.0787 89.3142 19.7137 91.6809 22.5753 93.7913L23.1689 92.9864C25.9302 95.0229 28.9074 96.8171 32.0633 98.3345L31.63 99.2357C34.7679 100.744 38.0789 101.984 41.5275 102.922L41.7899 101.957C45.0793 102.852 48.4967 103.467 52.0106 103.774L51.9235 104.77C53.6617 104.922 55.4227 105 57.203 105C58.9833 105 60.7443 104.922 62.4825 104.77L62.3954 103.774C65.9093 103.467 69.3267 102.852 72.6161 101.957L72.8785 102.922C76.3271 101.984 79.6381 100.744 82.776 99.2357L82.3427 98.3345C85.4986 96.8171 88.4758 95.0229 91.2372 92.9864L91.8307 93.7912C94.6923 91.6809 97.3273 89.3142 99.6955 86.7279L98.958 86.0526C101.308 83.4868 103.389 80.7017 105.161 77.7349L106.019 78.2477C107.829 75.2186 109.323 72.0025 110.461 68.6378L109.513 68.3176C110.612 65.069 111.37 61.6802 111.749 58.1873L112.743 58.2953C112.932 56.5538 113.029 54.7873 113.029 53Z" fill="white" stroke="#3D4248" stroke-width="2" stroke-dasharray="10 10"/>
<ellipse cx="56.6655" cy="52.5" rx="48.9135" ry="45.5" fill="#00224C"/>
<path fill-rule="evenodd" clip-rule="evenodd" d="M51.5952 33.4208C47.8247 35.3907 45.937 38.4879 45.7292 43.0471C45.5421 47.1499 46.8892 50.1144 50.0327 52.5171C60.8816 60.8084 74.5169 46.4907 65.7954 35.9657C62.3946 31.8619 56.5755 30.8189 51.5952 33.4208ZM52.625 36.1846C49.9641 37.9775 48.6297 40.3312 48.6297 43.2317C48.6297 46.4499 49.8381 48.9479 52.1126 50.4312C57.0188 53.6307 62.9963 51.7571 65.051 46.3758C66.099 43.6316 65.7913 41.1659 64.0771 38.5761C61.7324 35.0327 56.0843 33.853 52.625 36.1846ZM35.2647 37.9139C34.7099 38.0612 33.6286 38.6266 32.8615 39.1713C27.4081 43.0406 30.3368 52.1852 37.0299 52.1852C43.7371 52.1852 46.6481 43.0481 41.1811 39.1556C39.6534 38.0678 36.8785 37.4853 35.2647 37.9139ZM75.3163 38.0415C71.685 39.1415 69.4196 42.5125 69.9819 45.9778C71.1535 53.1975 80.9508 54.3236 83.6606 47.5504C84.2022 46.1977 84.3974 44.8148 84.1977 43.7502C83.7695 41.4685 81.2231 38.7032 78.9748 38.0789C76.9009 37.5029 77.087 37.5049 75.3163 38.0415ZM35.5627 41.1397C31.4554 42.7662 32.6249 49.1592 37.0299 49.1592C40.4962 49.1592 42.4349 44.5369 39.9298 42.2442C38.4541 40.8936 37.0692 40.5436 35.5627 41.1397ZM76.0002 40.9687C74.5573 41.2108 72.838 43.3911 72.838 44.9792C72.838 46.576 75.4212 49.1592 77.0179 49.1592C78.6333 49.1592 80.7107 47.4903 81.1187 45.8644C81.795 43.1702 78.9722 40.4704 76.0002 40.9687ZM32.2386 53.556C28.8374 54.3822 26.7161 57.9327 27.0308 62.272C27.1786 64.3126 27.3223 64.5416 28.4561 64.5416C29.5944 64.5416 29.73 64.3212 29.8501 62.272C30.1527 57.1081 31.2315 56.22 37.2028 56.22C41.2093 56.22 42.3108 55.5209 40.7549 53.9651C39.9969 53.2065 34.7195 52.9534 32.2386 53.556ZM73.3953 53.8864C72.034 55.527 73.069 56.22 76.8818 56.22C80.6149 56.22 83.0599 57.0516 83.6202 58.5122C83.7922 58.961 83.9334 60.3036 83.9334 61.4949C83.9334 63.8047 84.8856 65.117 86.1964 64.6137C87.3735 64.1623 87.2222 58.9268 85.973 56.8776C84.3853 54.2737 82.783 53.5364 78.189 53.2953C74.8397 53.1198 73.9399 53.2302 73.3953 53.8864ZM47.1136 55.178C41.4257 56.9084 38.5429 61.0591 38.5429 67.5172C38.5429 71.5156 39.1703 72.8839 41.5745 74.127C43.5162 75.1312 70.3596 75.2321 72.2852 74.2425C78.1517 71.2276 76.2377 59.7554 69.2753 56.2038C66.3779 54.7256 63.6232 54.4502 61.2452 55.4019C58.6877 56.4252 55.2017 56.451 52.8389 55.4635C50.8957 54.6515 49.1335 54.5637 47.1136 55.178ZM46.2204 58.8017C43.1591 60.3167 41.5689 63.1869 41.5689 67.1974C41.5689 72.0557 40.9017 71.8545 56.9871 71.8545C70.4277 71.8545 70.8509 71.8242 71.8943 70.7808C72.8405 69.8346 72.9297 69.3419 72.6473 66.6396C72.2403 62.7431 70.52 60.0227 67.6352 58.7129C65.0979 57.561 64.131 57.5237 61.4903 58.4749C58.9111 59.4044 54.9914 59.4044 52.4122 58.4749C49.6979 57.497 48.7552 57.5469 46.2204 58.8017Z" fill="white"/>
</svg>
