<svg width="58" height="58" viewBox="0 0 58 58" fill="none" xmlns="http://www.w3.org/2000/svg">
<g id="icon-box">
<g id="Group 8">
<rect id="Rectangle 958" width="58" height="58" rx="10" fill="white"/>
</g>
<path id="Vector" fill-rule="evenodd" clip-rule="evenodd" d="M34.0916 6.72685C34.0916 6.94428 33.9159 7.36193 33.7013 7.65516C33.3636 8.1163 33.1989 8.13714 32.477 7.80857C31.6988 7.45434 31.5691 7.50266 30.5446 8.5261C29.5201 9.54954 29.4717 9.6791 29.8263 10.4564C30.1552 11.1776 30.1344 11.3422 29.6727 11.6795C29.3792 11.8939 28.9611 12.0693 28.7435 12.0693C28.4653 12.0693 28.3477 12.5628 28.3477 13.7294C28.3477 15.313 28.3931 15.4093 29.3302 15.8188C30.2045 16.2006 29.1392 16.2507 19.6564 16.2724L9 16.2972V30.6438V44.9907L28.4233 44.9128L47.8466 44.8352L47.9258 30.4907L48.0047 16.1462L44.7969 16.2416C42.5804 16.3078 41.6505 16.2377 41.7881 16.0151C41.8975 15.8382 42.2512 15.6932 42.5741 15.6932C43.0895 15.6932 43.1608 15.4737 43.1608 13.887C43.1608 12.2122 43.1058 12.0669 42.4051 11.8915C41.5964 11.6885 41.4056 10.9236 42.0124 10.3175C42.2953 10.0348 42.1112 9.68363 41.181 8.73176C40.0455 7.5694 39.7677 7.48877 38.5866 7.97678C38.2217 8.12747 38.0098 7.93994 37.771 7.25593C37.4635 6.37443 37.3707 6.33154 35.77 6.33154C34.5886 6.33154 34.0916 6.44871 34.0916 6.72685ZM34.8268 8.2682C34.6279 9.06092 33.5308 9.50183 32.5398 9.18776C31.7015 8.92201 30.9899 9.60149 31.2061 10.4616C31.489 11.5877 31.0906 12.6024 30.2864 12.8038C29.7193 12.946 29.557 13.1873 29.557 13.887C29.557 14.5891 29.6915 14.7872 30.1679 14.7872C31.0198 14.7872 31.5737 16.0656 31.1368 17.0232C30.8651 17.619 30.9062 17.8401 31.3654 18.2553C31.8213 18.6675 32.048 18.6956 32.5873 18.4072C33.0662 18.1511 33.341 18.1445 33.5798 18.383C34.0094 18.8122 37.4992 18.8122 37.9288 18.383C38.1676 18.1445 38.4454 18.1529 38.9328 18.4135C39.5002 18.7167 39.7015 18.6793 40.2049 18.1762C40.6967 17.6851 40.7421 17.4647 40.4597 16.938C40.0217 16.1202 40.4863 15.1717 41.5166 14.7803C42.48 14.4143 42.4885 13.3712 41.5314 12.9355C40.5507 12.4891 40.0335 11.3183 40.4627 10.5171C40.7191 10.0388 40.6801 9.78328 40.2841 9.346C39.8684 8.88728 39.6471 8.84621 39.0507 9.1177C38.092 9.55407 36.8124 9.00083 36.8124 8.14982C36.8124 7.67389 36.614 7.5395 35.9112 7.5395C35.2107 7.5395 34.9692 7.70167 34.8268 8.2682ZM33.3056 11.2842C32.4147 12.1741 32.2789 12.5063 32.2874 13.7756C32.2977 15.3514 32.6952 16.0837 34.0112 16.9504C37.0043 18.9221 40.9516 14.979 38.9778 11.989C38.1102 10.6745 37.3771 10.2773 35.7996 10.2671C34.529 10.2586 34.1965 10.3942 33.3056 11.2842ZM34.7322 11.6441C33.1922 12.291 32.9474 14.4234 34.2763 15.6177C35.2951 16.5334 36.5382 16.489 37.527 15.5012C38.4838 14.5451 38.5579 13.354 37.7262 12.2976C36.9898 11.3627 35.9453 11.1347 34.7322 11.6441ZM9.13967 30.6417C9.13997 38.6142 9.17897 41.8322 9.22643 37.7931C9.27419 33.7537 9.27419 27.2307 9.22643 23.2976C9.17866 19.3642 9.13967 22.6692 9.13967 30.6417ZM10.2092 19.4717V21.4383L21.4702 21.3591L32.7312 21.28L32.8316 20.5725C32.9138 19.9917 32.8267 19.8981 32.3467 20.0503C31.9119 20.188 31.4382 19.8851 30.502 18.8705L29.2423 17.5052H19.7256H10.2092V19.4717ZM41.2264 18.8985C40.3736 19.8658 39.8932 20.1862 39.4881 20.0579C39.0428 19.9165 38.9285 20.0385 38.9285 20.6558V21.431H42.7074H46.4862V19.4681V17.5052L44.4456 17.5335C42.4241 17.5619 42.3939 17.5746 41.2264 18.8985ZM11.6201 18.9145C11.2038 19.3301 11.4405 19.9211 12.0231 19.9211C12.4261 19.9211 12.6277 19.7196 12.6277 19.3171C12.6277 18.7352 12.0361 18.4987 11.6201 18.9145ZM14.1392 19.295C14.1392 19.7272 14.3333 19.9211 14.7659 19.9211C15.5407 19.9211 15.4528 18.9215 14.665 18.7699C14.3022 18.7001 14.1392 18.8629 14.1392 19.295ZM16.5577 19.3171C16.5577 19.7196 16.7593 19.9211 17.1623 19.9211C17.5653 19.9211 17.7669 19.7196 17.7669 19.3171C17.7669 18.9145 17.5653 18.7131 17.1623 18.7131C16.7593 18.7131 16.5577 18.9145 16.5577 19.3171ZM33.9909 20.1225C33.88 20.233 33.7893 20.8446 33.7893 21.4815V22.639H21.9993H10.2092V33.2086V43.7782H28.3477H46.4862V33.2086V22.639H42.7074H38.9285V25.2195V27.8L37.3861 30.0833L35.8438 32.3667L34.364 30.1452C32.9582 28.0355 32.8839 27.8214 32.8833 25.8854C32.8827 24.2746 32.9776 23.8469 33.3358 23.8469C33.6783 23.8469 33.7893 24.216 33.7893 25.3569C33.7893 26.7663 33.8398 26.8668 34.545 26.8668H35.3008V23.394C35.3008 20.2276 35.2518 19.9211 34.7467 19.9211C34.4417 19.9211 34.1016 20.0117 33.9909 20.1225ZM36.5101 23.394C36.5101 26.6654 36.5451 26.8668 37.1147 26.8668C37.6842 26.8668 37.7193 26.6654 37.7193 23.394C37.7193 20.1225 37.6842 19.9211 37.1147 19.9211C36.5451 19.9211 36.5101 20.1225 36.5101 23.394ZM23.662 24.9099L22.755 26.2616L18.7494 26.2622L14.7439 26.2629V30.6417V35.0205H18.9762H23.2085V31.3342V27.6481L24.4041 25.9455C25.3083 24.6578 25.5148 24.1577 25.2506 23.8937C24.7364 23.3801 24.6526 23.4335 23.662 24.9099ZM15.9531 30.6417V33.8126H18.9762H21.9993V31.6987C21.9993 30.536 21.9509 29.5847 21.8919 29.5847C21.833 29.5847 21.212 30.4001 20.5122 31.3967C19.8124 32.3932 19.1391 33.2086 19.0161 33.2086C18.893 33.2086 18.3365 32.7384 17.779 32.164C16.9159 31.2744 16.824 31.0488 17.1605 30.6441C17.5154 30.2165 17.627 30.2358 18.2645 30.8341C18.6545 31.2001 19.0167 31.4426 19.0693 31.3728C19.5297 30.7601 21.3451 28.1448 21.5156 27.8483C21.6827 27.5575 21.0691 27.4708 18.8429 27.4708H15.9531V30.6417ZM34.6983 28.3013C34.6992 28.4257 34.9553 28.9143 35.2673 29.3869C35.6938 30.0332 35.8939 30.1455 36.0747 29.8399C36.2071 29.6164 36.5107 29.1278 36.7498 28.7543C37.1748 28.0893 37.1576 28.0748 35.9402 28.0748C35.2561 28.0748 34.6971 28.1769 34.6983 28.3013ZM31.4382 38.1159L31.522 42.4193L35.8299 42.5029L40.1378 42.5869V38.1996V33.8126H35.7461H31.3542L31.4382 38.1159ZM32.645 38.1159L32.7312 41.2113L35.8299 41.2974L38.9285 41.3835V38.202V35.0205H35.7437H32.5589L32.645 38.1159ZM33.8301 36.3303C33.5734 36.6392 33.672 36.9007 34.2482 37.4416L35.0018 38.1489L34.3392 38.8537C33.8319 39.3931 33.7597 39.6416 34.0311 39.9128C34.3026 40.184 34.5514 40.1118 35.0913 39.605L35.7969 38.9431L36.5143 39.7059C37.1522 40.3842 37.2822 40.4186 37.6851 40.0158C38.0884 39.6132 38.0591 39.4782 37.4227 38.8018L36.7069 38.0404L37.3623 37.3438C37.8674 36.8065 37.9354 36.5652 37.6588 36.2889C37.3822 36.0126 37.1407 36.0805 36.6029 36.5852L35.9054 37.2399L35.2059 36.583C34.3863 35.8142 34.2757 35.7939 33.8301 36.3303ZM11.4185 36.8325C11.4185 37.235 11.6201 37.4365 12.0231 37.4365C12.4261 37.4365 12.6277 37.235 12.6277 36.8325C12.6277 36.4299 12.4261 36.2285 12.0231 36.2285C11.6201 36.2285 11.4185 36.4299 11.4185 36.8325ZM14.1392 36.8325C14.1392 37.4168 14.3409 37.4365 20.3366 37.4365C26.3322 37.4365 26.5339 37.4168 26.5339 36.8325C26.5339 36.2481 26.3322 36.2285 20.3366 36.2285C14.3409 36.2285 14.1392 36.2481 14.1392 36.8325ZM11.6252 38.8404C11.5116 38.9543 11.4185 39.2282 11.4185 39.4498C11.4185 39.7745 12.8835 39.8524 18.9982 39.8524C26.0544 39.8524 26.5711 39.8158 26.4764 39.3239C26.3833 38.8407 25.7509 38.7885 19.1034 38.7148C15.1042 38.6704 11.7389 38.7269 11.6252 38.8404ZM11.4759 41.8908C11.5681 42.3701 12.147 42.4268 17.6953 42.5011C23.6595 42.5809 23.8131 42.5676 23.8131 41.9726C23.8131 41.3801 23.6329 41.3623 17.5937 41.3623C11.8332 41.3623 11.3816 41.4013 11.4759 41.8908ZM25.3246 41.9883C25.3246 42.7624 26.3253 42.6745 26.477 41.8875C26.5469 41.5251 26.3839 41.3623 25.9513 41.3623C25.5187 41.3623 25.3246 41.5562 25.3246 41.9883Z" fill="#545454"/>
</g>
</svg>
