<svg id="eXrOCgZvQwR1" xmlns="http://www.w3.org/2000/svg" xmlns:xlink="http://www.w3.org/1999/xlink" viewBox="0 0 61 61" shape-rendering="geometricPrecision" text-rendering="geometricPrecision"><style><![CDATA[#eXrOCgZvQwR2_tr {animation: eXrOCgZvQwR2_tr__tr 1500ms linear infinite normal forwards}@keyframes eXrOCgZvQwR2_tr__tr { 0% {transform: translate(0px,50.523242px) rotate(0deg);animation-timing-function: cubic-bezier(0.175,0.885,0.32,1.275)} 46.666667% {transform: translate(0px,50.523242px) rotate(-6.185798deg);animation-timing-function: cubic-bezier(0.175,0.885,0.32,1.275)} 93.333333% {transform: translate(0px,50.523242px) rotate(0deg)} 100% {transform: translate(0px,50.523242px) rotate(0deg)}} #eXrOCgZvQwR5_ts {animation: eXrOCgZvQwR5_ts__ts 1500ms linear infinite normal forwards}@keyframes eXrOCgZvQwR5_ts__ts { 0% {transform: translate(29.995442px,36.186863px) scale(0,0);animation-timing-function: cubic-bezier(0.175,0.885,0.32,1.275)} 33.333333% {transform: translate(29.995442px,36.186863px) scale(1,1)} 66.666667% {transform: translate(29.995442px,36.186863px) scale(1,1)} 100% {transform: translate(29.995442px,36.186863px) scale(0,0)}}]]></style><g id="eXrOCgZvQwR2_tr" transform="translate(0,50.523242) rotate(0)"><g transform="translate(0.000004,-50.523241)"><path d="M8.54297,56.8782c0-1.6838,0-3.3181,0-4.9524c0-2.3276.02476-4.6305,0-6.9333c0-.4953.12381-.7429.59429-.9162c2.35234-.9162,4.72954-1.8572,7.05714-2.8476c1.3867-.5943,2.7733-.6191,4.2343-.3715c4.8286.7924,9.6571,1.56,14.4857,2.3524c1.04.1734,1.2133.5695.5943,1.4115-1.461,1.9314-3.4172,2.7485-5.7943,2.5257-.9657-.0991-1.9314-.2477-2.8971-.3715-.8172-.099-1.4362.2972-1.5353,1.0153s.3467,1.3124,1.1638,1.4362c1.6096.2476,3.2191.4457,4.8286.6438c2.8971.3962,5.7943.7676,8.6914,1.1638.4953.0743,1.0153.1238,1.5105.0743.3219-.0248.6686-.1486.9162-.3467c3.7143-3.1695,7.4038-6.339,11.0933-9.5333.6686-.5696,1.4115-.8667,2.2781-.7429c1.3619.1981,2.08,1.5105,1.4362,2.7238-.4457.8667-.9657,1.7086-1.5105,2.6743c1.7334-.1486,2.8477.8914,4.0115,1.7581.4952.3714.3962.7924-.2229,1.1143-2.6495,1.3867-5.2743,2.7981-7.9486,4.0857-6.4628,3.12-13.1485,5.621-20.1314,7.3543-2.7733.6933-5.4228.3714-8.1219-.2229-4.7543-1.0152-9.5333-1.9562-14.31238-2.9466-.12381-.0496-.24762-.0991-.42095-.1486Z" fill="#060202"/><path d="M0,50.9105c0-2.4762,0-4.9524,0-7.4286c0-.9409.321906-1.2876,1.28762-1.2876c1.18857,0,2.35238,0,3.54095,0c.91619,0,1.26286.3715,1.26286,1.2629c0,5.0019,0,9.979,0,14.9809c0,.9162-.34667,1.2629-1.26286,1.2629-1.18857,0-2.4019,0-3.59047,0-.866671,0-1.213337-.3714-1.213337-1.2381C0.000001,55.9372,0,53.4115,0,50.9105Z" fill="#060202"/></g></g><g id="eXrOCgZvQwR5_ts" transform="translate(29.995442,36.186863) scale(0,0)"><g transform="translate(-29.995405,-36.186861)"><path d="M12.6043,19.0916c.5695,0,1.139-.0248,1.7085,0c.9905.0495,1.7086.7924,1.7334,1.7581.0247.9409-.6934,1.7828-1.6838,1.8324-1.2134.0495-2.4267.0495-3.64,0-.99052-.0496-1.65909-.8667-1.63433-1.8324s.74286-1.7086,1.75813-1.7334c.5942-.0495,1.1885-.0247,1.7581-.0247Z" fill="#060202"/><path d="M41.2042,30.1108c.3962.1981.8667.3467,1.1886.6438.8172.7429,1.5848,1.5105,2.3276,2.3029.7429.7924.7429,1.9067,0,2.6-.7181.6933-1.7828.6933-2.5752-.0495-.7924-.7676-1.56-1.5353-2.3276-2.3276-.5448-.5696-.6438-1.2381-.3715-1.9562.3219-.6686.9905-1.1143,1.7581-1.2134Z" fill="#060202"/><path d="M20.7755,32.0667c-.1981.3962-.3467.8667-.619,1.1886-.7677.8419-1.5848,1.6343-2.402,2.4267-.7428.6933-1.8323.6686-2.5257-.0495-.6933-.6934-.7181-1.7829-.0247-2.5258.7924-.8171,1.5847-1.6342,2.4019-2.4019.5695-.5447,1.2628-.6685,1.9809-.3466.6934.3219,1.04.8914,1.1886,1.7085Z" fill="#060202"/><path d="M20.6516,9.50848c-.0248.96572-.3467,1.53522-1.04,1.85712s-1.3867.2724-1.9314-.2476c-.8915-.8171-1.7581-1.68381-2.5753-2.57524-.6438-.69333-.5695-1.7581.0991-2.42667.6438-.64381,1.6838-.76761,2.3771-.12381.941.84191,1.8076,1.7581,2.6743,2.67429.2476.24762.3219.66857.3962.84191Z" fill="#060202"/><path d="M41.3035,11.5639c-.9162-.0495-1.4857-.3962-1.8076-1.04-.3219-.66857-.2724-1.33715.1981-1.88191.8419-.91619,1.7333-1.83238,2.6743-2.67428.6933-.61905,1.7333-.52,2.3771.14857.6438.64381.7429,1.70857.1486,2.37714-.8419.94096-1.7581,1.80758-2.6743,2.67428-.2724.2476-.7181.3219-.9162.3962Z" fill="#060202"/><path d="M47.3943,22.6823c-.5448,0-1.0895.0248-1.6343,0-1.0647-.0495-1.8076-.8419-1.7828-1.8324.0247-1.0152.7923-1.7581,1.8571-1.7581c1.0648-.0247,2.1543-.0247,3.2191,0c1.0647.0248,1.8076.7429,1.8323,1.7829.0248,1.0152-.7181,1.7828-1.7828,1.8324-.5943,0-1.1638-.0248-1.7086-.0248Z" fill="#060202"/><path d="M31.8192,3.46667c0,.54476.0248,1.08952,0,1.63428-.0495,1.01524-.8171,1.78286-1.7828,1.80762-.9905.02477-1.8324-.74286-1.8572-1.78286-.0247-1.11428-.0247-2.22857,0-3.34285C28.204,0.792379,29.0211,0,29.9868,0s1.7829.767617,1.8324,1.75809c0,.56953,0,1.13905,0,1.70858Z" fill="#060202"/><path d="M31.4477,35.7072c0-2.6991,0-5.3238.0248-7.9486c0-.1733.2476-.3714.4209-.4952c1.3867-.8667,2.08-2.1048,1.9315-3.7391-.1734-1.659-1.1143-2.8228-2.7238-3.3181-1.8572-.5943-3.8629.3467-4.6553,2.1296s-.1486,3.8876,1.56,4.8781c.421.2476.5448.4952.52.9409-.0247,2.2781,0,4.5562,0,6.8343c0,.2229,0,.4457,0,.7181-.7924,0-1.5105.0248-2.2285-.0248-.1486,0-.3467-.1733-.421-.3466-1.9067-3.8629-3.9619-7.701-5.6705-11.6381-2.5752-5.9181.9657-12.8762,7.5029-14.31242C34.543,7.87481,40.8572,13.1986,40.5849,20.1815c-.0496,1.3619-.3467,2.699-.9657,3.9371-1.8077,3.6895-3.64,7.3791-5.4229,11.0933-.1733.3715-.3467.52-.7676.4953-.6438-.0248-1.2629,0-1.981,0Z" transform="translate(.000006 0)" fill="#060202"/></g></g></svg>