<svg width="49" height="49" viewBox="0 0 49 49" fill="none" xmlns="http://www.w3.org/2000/svg">
<path d="M31.4346 24.8323C31.4346 26.6852 31.4548 28.538 31.4346 30.3909C31.4346 31.5187 30.3653 32.3042 29.3566 31.9417C29.1952 31.8812 29.0539 31.6798 28.9732 31.4986C28.7311 30.834 28.5092 30.1694 28.2873 29.5047C28.2268 29.3436 28.1864 29.1422 28.1864 28.9811C28.1864 27.7727 28.1864 26.5643 28.1864 25.3358C28.1662 23.1406 26.7742 21.2072 24.6558 20.603C21.8918 19.7974 19.1077 19.0724 16.3235 18.3272C15.6981 18.1661 15.2744 18.5085 15.2139 19.1328C15.1332 19.878 15.3551 20.4217 15.9604 20.9252C18.22 22.8788 20.419 24.8928 22.6383 26.9067C23.3242 27.5311 23.5058 28.3568 23.183 29.1624C22.8804 29.9277 22.1541 30.3708 21.2664 30.411C20.641 30.4312 20.1164 30.2499 19.612 29.8874C17.8366 28.5783 16.0411 27.2894 14.2657 25.9803C13.2771 25.2553 12.2684 24.5302 11.3403 23.7247C9.74648 22.335 8.71756 20.5426 7.80969 18.6494C7.32549 17.6022 7.30531 17.6223 8.11231 16.7966C9.90789 15.0042 11.7035 13.2319 13.4789 11.4193C13.7613 11.1373 14.0236 10.9964 14.4473 11.0568C16.142 11.2783 17.8366 11.3991 19.5112 11.6811C20.3383 11.8221 21.1857 12.1443 21.8918 12.5874C24.7163 14.3395 27.4803 16.1723 30.3048 17.9446C31.132 18.4682 31.5355 19.0522 31.4548 20.0794C31.3539 21.7107 31.4346 23.2816 31.4346 24.8323Z" fill="#FFFF00"/>
<path d="M5.46961 17.0178C4.01701 15.5678 2.54424 14.0976 1.11182 12.6475C3.91614 9.8481 6.76081 7.0084 9.56513 4.20898C10.9976 5.6389 12.4703 7.12924 13.9229 8.5793C11.1388 11.3787 8.29411 14.1983 5.46961 17.0178Z" fill="#FFFF00"/>
<path d="M16.8887 43.3402C17.2115 40.9838 18.3816 39.2518 20.3184 37.9629C21.5894 39.3525 22.8403 40.722 24.1315 42.1318C25.4025 40.7422 26.6534 39.3525 27.9446 37.9629C29.9217 39.2518 31.0515 41.004 31.3743 43.3402C26.5323 43.3402 21.7508 43.3402 16.8887 43.3402Z" fill="#FFFF00"/>
<path d="M15.1736 48.9994C10.3316 48.9994 5.52998 48.9994 0.687988 48.9994C1.01079 46.6632 2.16076 44.911 4.11773 43.6221C5.38875 45.0117 6.63961 46.3812 7.93081 47.791C9.20183 46.3812 10.4729 45.0117 11.7439 43.6221C13.7008 44.911 14.8508 46.643 15.1736 48.9994Z" fill="#FFFF00"/>
<path d="M33.1091 48.9792C33.4118 46.6632 34.5819 44.911 36.5389 43.6221C37.8099 45.0117 39.0607 46.3812 40.3519 47.791C41.623 46.3812 42.894 45.0117 44.165 43.6221C46.122 44.911 47.272 46.643 47.5948 48.9792C42.7528 48.9792 37.9511 48.9792 33.1091 48.9792Z" fill="#FFFF00"/>
<path d="M7.93079 40.9445C6.13522 40.9445 4.68262 39.4945 4.68262 37.7021C4.68262 35.9096 6.15539 34.4596 7.95096 34.4797C9.72636 34.4797 11.1588 35.9298 11.179 37.7021C11.179 39.4743 9.72636 40.9445 7.93079 40.9445Z" fill="#FFFF00"/>
<path d="M40.3521 34.4797C42.1477 34.4797 43.5801 35.9499 43.5801 37.7423C43.56 39.5146 42.0872 40.9647 40.2916 40.9445C38.5364 40.9244 37.0838 39.4743 37.104 37.7021C37.104 35.9096 38.5767 34.4596 40.3521 34.4797Z" fill="#FFFF00"/>
<path d="M33.1495 20.6436C34.5013 22.2547 35.853 23.8659 37.2047 25.4771C37.8301 26.2021 38.4354 26.9473 39.0608 27.6925C39.6862 28.4376 39.6661 29.3842 39.0003 30.0085C38.3345 30.6329 37.4065 30.5926 36.6802 29.9078C35.5302 28.78 34.3802 27.632 33.2504 26.4841C33.1495 26.3834 33.089 26.2424 33.0285 26.1014C33.0083 26.041 33.0285 25.9604 33.0285 25.9C33.0285 24.168 33.0285 22.436 33.0285 20.704C33.089 20.6637 33.1294 20.6637 33.1495 20.6436Z" fill="#FFFF00"/>
<path d="M20.9236 32.083C23.4051 31.8211 24.313 31.0961 24.9182 28.9814C26.3103 29.1224 27.5006 30.7135 27.3796 32.3045C27.2585 34.0164 25.7656 35.3456 24.0305 35.2852C22.3157 35.2248 20.9236 33.7948 20.9236 32.083Z" fill="#FFFF00"/>
<path d="M39.8477 6.68657C40.1906 6.36434 40.5538 6.02196 40.9976 5.61917C41.2599 5.96154 41.5424 6.32406 41.8248 6.70671C43.9028 4.63232 45.8396 2.67877 47.8168 0.705078C48.2405 1.16829 48.5834 1.53081 48.9062 1.89332C46.6063 4.18925 44.2862 6.50531 41.9862 8.80124C41.2801 8.11649 40.574 7.4116 39.8477 6.68657Z" fill="#FFFF00"/>
<path d="M44.3868 13.4538C44.3868 14.783 43.2974 15.8705 41.9658 15.8705C40.6141 15.8705 39.5247 14.783 39.5247 13.4336C39.5247 12.0843 40.6343 10.9967 41.986 11.0169C43.3176 11.037 44.3868 12.1246 44.3868 13.4538Z" fill="#FFFF00"/>
<path d="M37.8906 6.20312C37.8906 6.7469 37.8906 7.23025 37.8906 7.75388C34.6626 7.75388 31.475 7.75388 28.2268 7.75388C28.2268 7.25039 28.2268 6.7469 28.2268 6.20312C31.4346 6.20312 34.6424 6.20312 37.8906 6.20312Z" fill="#FFFF00"/>
<path d="M37.8906 9.42578C37.8906 9.96955 37.8906 10.4529 37.8906 10.9765C34.6626 10.9765 31.475 10.9765 28.2268 10.9765C28.2268 10.473 28.2268 9.96955 28.2268 9.42578C31.4346 9.42578 34.6424 9.42578 37.8906 9.42578Z" fill="#FFFF00"/>
<path d="M28.2068 14.219C28.2068 13.6752 28.2068 13.1918 28.2068 12.6279C29.2962 12.6279 30.3453 12.6279 31.3944 12.6279C32.4637 12.6279 33.5128 12.6279 34.6224 12.6279C34.6224 13.1516 34.6224 13.6551 34.6224 14.219C32.5041 14.219 30.3857 14.219 28.2068 14.219Z" fill="#FFFF00"/>
<path d="M21.8918 37.279C23.3646 36.7755 24.8777 36.7755 26.3707 37.279C25.6242 38.1047 24.8979 38.9103 24.1313 39.736C23.3848 38.9103 22.6585 38.1249 21.8918 37.279Z" fill="#FFFF00"/>
<path d="M7.93083 45.3957C7.16418 44.5499 6.45806 43.7644 5.69141 42.9387C7.20453 42.4553 8.65713 42.4553 10.1904 42.9387C9.42378 43.7644 8.69748 44.5499 7.93083 45.3957Z" fill="#FFFF00"/>
<path d="M40.352 45.3957C39.5853 44.5499 38.8792 43.7644 38.1125 42.9387C39.6257 42.4553 41.0783 42.4553 42.6116 42.9387C41.8248 43.7644 41.1186 44.5499 40.352 45.3957Z" fill="#FFFF00"/>
<path d="M36.3372 12.6475C36.8617 12.6475 37.3661 12.6475 37.8906 12.6475C37.8906 13.1711 37.8906 13.6947 37.8906 14.2184C37.3661 14.2184 36.8819 14.2184 36.3372 14.2184C36.3372 13.7149 36.3372 13.2114 36.3372 12.6475Z" fill="#FFFF00"/>
</svg>
