<svg width="100" height="101" viewBox="0 0 100 101" fill="none" xmlns="http://www.w3.org/2000/svg">
<path fill-rule="evenodd" clip-rule="evenodd" d="M0 11.8304V23.1518H10.3573H20.7147L22.1884 24.6711L23.6627 26.1904L21.276 27.3949C17.5729 29.2631 15.1511 31.0115 11.8498 34.201C-0.820889 46.4414 -3.50711 65.3224 5.21022 80.8686C8.12978 86.0756 14.3431 92.2824 19.5556 95.1988C32.8947 102.663 48.864 101.825 61.2271 93.0118L64.0889 90.9717L66.8222 93.6396C69.9613 96.7035 70.9467 97.2957 72.904 97.2957C73.9116 97.2957 74.74 96.8673 75.8222 95.7862C77.1142 94.4956 77.3333 93.9726 77.3333 92.1785C77.3333 90.1713 77.1929 89.9364 74.0889 86.7646L70.844 83.449L73.1031 78.94C75.676 73.805 76.848 69.5148 77.212 63.899L77.4649 60.0018H58.9547H40.4444V41.5284V23.0546L37.1111 23.2228L33.7778 23.3911V11.9498V0.509033H16.8889H0V11.8304ZM3.11111 11.8304V20.044H12.3258H21.5404L26.1036 24.5867L30.6667 29.1295V16.3732V3.61686H16.8889H3.11111V11.8304ZM6.66667 8.73058V10.2929L17 10.1735L27.3333 10.0545L27.4724 8.61159L27.612 7.16867H17.1391H6.66667V8.73058ZM87.1102 27.9245L87.1098 45.5726L93.5547 45.4389L100 45.3049V27.7909V10.2765H93.5556H87.1111L87.1102 27.9245ZM6.66667 14.9382V16.4922H17.1111H27.5556V14.9382V13.3843H17.1111H6.66667V14.9382ZM90.2222 27.8135V42.2428H93.5556H96.8889V27.8135V13.3843H93.5556H90.2222V27.8135ZM43.5556 36.6931V56.8939H63.8049H84.0538L83.7764 53.6751C83.6236 51.9045 83.3116 49.4973 83.0827 48.3257C82.5351 45.5206 82.5498 45.3506 83.3396 45.3506C83.9289 45.3506 83.9978 43.5733 83.8951 31.0324L83.7778 16.7141L77.4444 16.5912L71.1111 16.4677V21.3639C71.1111 24.0566 70.9609 26.2587 70.7778 26.2574C70.5947 26.2565 69.7307 25.607 68.8582 24.8145C66.7396 22.8898 61.0236 19.921 56.7684 18.5358C54.0707 17.6572 46.764 16.4922 43.9529 16.4922C43.7253 16.4922 43.5556 25.1177 43.5556 36.6931ZM74.2213 31.0128L74.22 42.4647L77.5622 42.3182L80.904 42.1722L80.7853 30.9968L80.6667 19.822L77.4444 19.6914L74.2222 19.5609L74.2213 31.0128ZM46.6667 36.8511V53.7861H63.6196H80.572L80.2853 50.7058C80.128 49.0116 79.7987 47.0994 79.5542 46.4565C79.1129 45.2973 79.0751 45.2889 75.1089 45.4301L71.1089 45.5726L71.1102 38.1733L71.1111 30.774L69.3333 29.3675L67.5556 27.9609L67.5564 36.7668L67.5569 45.5726L61.3489 45.4385L55.1409 45.304L55.0147 34.2277L54.8889 23.1514L57.3333 23.138C58.9404 23.1292 59.5493 22.9924 59.1111 22.738C57.524 21.8176 52.4729 20.4555 49.6884 20.1971L46.6667 19.9165V36.8511ZM34.5556 26.5655C33.8756 26.7431 33.7778 27.3705 33.7778 31.5656V36.3627L30.1111 32.6098C26.7742 29.1943 26.3258 28.8809 25.1218 29.121C20.9138 29.9615 11.5093 37.9593 8.36045 43.3749C5.18622 48.8345 3.11111 56.1094 3.11111 61.7777C3.11111 65.31 4.39556 71.4892 5.85956 75.0028C14.7836 96.4167 41.0582 103.883 59.696 90.3013L61.8369 88.7412L60.3867 87.2468C59.1133 85.9344 58.6604 85.7524 56.6667 85.7524C48.1089 85.7524 43.6422 75.5232 49.6476 69.6778C53.7978 65.6376 59.4542 65.6891 63.4618 69.8039C65.1182 71.5047 66.4364 75.3314 66.0196 77.2276C65.8031 78.2114 66.0164 78.7114 67.0924 79.7409C67.8311 80.4478 68.5027 80.9406 68.5849 80.8362C70.9671 77.8181 74.2222 68.0728 74.2222 63.9585C74.2222 63.1362 73.6431 63.1096 55.7778 63.1096H37.3333V44.6846V26.2596L36.3333 26.3111C35.7836 26.3395 34.9836 26.4541 34.5556 26.5655ZM58.2222 34.2512V42.2428H61.3333H64.4444V34.2512V26.2596H61.3333H58.2222V34.2512ZM12.1867 46.3029C10.9751 46.8898 9.77778 48.9543 9.77778 50.4563C9.77778 54.5462 14.9271 56.7022 17.812 53.8203C20.7049 50.9305 18.7631 45.7546 14.812 45.8247C13.8764 45.8412 12.6951 46.0561 12.1867 46.3029ZM13.32 49.5843C12.5129 50.5562 13.2924 51.7882 14.7151 51.7882C15.5996 51.7882 15.7778 51.5649 15.7778 50.4563C15.7778 49.444 15.5551 49.0924 14.8498 48.9921C14.3396 48.9193 13.6511 49.1856 13.32 49.5843ZM19.5556 56.228L12.6822 63.1047L13.7933 64.2147L14.9044 65.3246L21.7778 58.4479L28.6511 51.5711L27.54 50.4612L26.4289 49.3512L19.5556 56.228ZM24.1778 60.1794C22.4516 61.9038 22.1996 63.7361 23.4067 65.7779C25.7622 69.7613 32 68.1496 32 63.5585C32 61.2582 31.4422 60.1958 29.7867 59.3403C27.6182 58.2201 25.8787 58.4803 24.1778 60.1794ZM26.2089 62.4596C25.4018 63.4315 26.1813 64.6635 27.604 64.6635C28.4884 64.6635 28.6667 64.4402 28.6667 63.3316C28.6667 62.3193 28.444 61.9677 27.7387 61.8674C27.2284 61.7946 26.54 62.0609 26.2089 62.4596ZM53.2889 70.7167C47.6693 73.9724 49.9636 82.6445 56.4444 82.6445C59.9227 82.6445 62.8147 79.7316 62.8147 76.2286C62.8147 73.8636 61.6382 71.8799 59.5351 70.6989C57.444 69.5251 55.3356 69.5308 53.2889 70.7167ZM27.5556 76.2069C27.5556 77.6867 27.6298 77.7608 29.1111 77.7608C30.5924 77.7608 30.6667 77.6867 30.6667 76.2069C30.6667 74.7271 30.5924 74.653 29.1111 74.653C27.6298 74.653 27.5556 74.7271 27.5556 76.2069ZM33.7778 76.2069C33.7778 77.6867 33.852 77.7608 35.3333 77.7608C36.8147 77.7608 36.8889 77.6867 36.8889 76.2069C36.8889 74.7271 36.8147 74.653 35.3333 74.653C33.852 74.653 33.7778 74.7271 33.7778 76.2069ZM40.4444 76.2069C40.4444 77.6867 40.5187 77.7608 42 77.7608C43.4813 77.7608 43.5556 77.6867 43.5556 76.2069C43.5556 74.7271 43.4813 74.653 42 74.653C40.5187 74.653 40.4444 74.7271 40.4444 76.2069ZM54.8889 76.2069C54.8889 77.7066 54.9471 77.7608 56.5556 77.7608C58.164 77.7608 58.2222 77.7066 58.2222 76.2069C58.2222 74.7071 58.164 74.653 56.5556 74.653C54.9471 74.653 54.8889 74.7071 54.8889 76.2069ZM63.0373 83.0437L61.8529 84.2877L66.8222 89.238C69.5556 91.9605 72.0987 94.1879 72.4738 94.1879C73.4293 94.1879 74.2222 93.2889 74.2222 92.2047C74.2222 91.6288 72.4391 89.5111 69.4373 86.5218C66.8053 83.901 64.5555 81.7664 64.4373 81.7779C64.3191 81.7899 63.6893 82.3591 63.0373 83.0437Z" fill="white"/>
</svg>
