<svg width="114" height="106" viewBox="0 0 114 106" fill="none" xmlns="http://www.w3.org/2000/svg">
<path d="M112.955 53C112.955 51.2127 112.858 49.4462 112.669 47.7047L111.675 47.8127C111.296 44.3198 110.537 40.931 109.439 37.6824L110.387 37.3622C109.249 33.9975 107.755 30.7814 105.945 27.7523L105.087 28.2651C103.315 25.2983 101.233 22.5132 98.8839 19.9474L99.6214 19.2721C97.2532 16.6858 94.6182 14.3191 91.7566 12.2088L91.1631 13.0136C88.4017 10.9771 85.4245 9.18292 82.2686 7.6655L82.7019 6.76427C79.564 5.25552 76.253 4.01592 72.8044 3.078L72.542 4.04295C69.2526 3.14834 65.8352 2.53279 62.3213 2.22573L62.4084 1.22953C60.6702 1.07764 58.9092 1 57.1289 1C55.3486 1 53.5876 1.07764 51.8494 1.22953L51.9365 2.22573C48.4226 2.5328 45.0052 3.14834 41.7158 4.04295L41.4534 3.078C38.0048 4.01592 34.6938 5.25552 31.5559 6.76427L31.9892 7.66551C28.8333 9.18292 25.8561 10.9771 23.0947 13.0136L22.5012 12.2088C19.6396 14.3191 17.0046 16.6858 14.6364 19.2721L15.3739 19.9474C13.0243 22.5132 10.9433 25.2983 9.17115 28.2651L8.31265 27.7523C6.50326 30.7814 5.00881 33.9975 3.8713 37.3622L4.81862 37.6824C3.72035 40.931 2.96215 44.3198 2.58284 47.8127L1.58869 47.7047C1.39957 49.4462 1.30273 51.2127 1.30273 53C1.30273 54.7873 1.39957 56.5538 1.58868 58.2953L2.58284 58.1873C2.96215 61.6802 3.72035 65.069 4.81862 68.3176L3.8713 68.6378C5.00881 72.0025 6.50326 75.2186 8.31265 78.2477L9.17115 77.7349C10.9433 80.7017 13.0243 83.4868 15.3739 86.0526L14.6364 86.7279C17.0046 89.3142 19.6396 91.6809 22.5012 93.7913L23.0948 92.9864C25.8561 95.0229 28.8333 96.8171 31.9892 98.3345L31.5559 99.2357C34.6939 100.744 38.0048 101.984 41.4534 102.922L41.7158 101.957C45.0052 102.852 48.4226 103.467 51.9365 103.774L51.8494 104.77C53.5876 104.922 55.3486 105 57.1289 105C58.9092 105 60.6702 104.922 62.4084 104.77L62.3213 103.774C65.8352 103.467 69.2526 102.852 72.542 101.957L72.8044 102.922C76.253 101.984 79.564 100.744 82.7019 99.2357L82.2686 98.3345C85.4245 96.8171 88.4017 95.0229 91.1631 92.9864L91.7566 93.7912C94.6182 91.6809 97.2532 89.3142 99.6215 86.7279L98.8839 86.0526C101.233 83.4868 103.315 80.7017 105.087 77.7349L105.945 78.2477C107.755 75.2186 109.249 72.0025 110.387 68.6378L109.439 68.3176C110.537 65.069 111.296 61.6802 111.675 58.1873L112.669 58.2953C112.858 56.5538 112.955 54.7873 112.955 53Z" stroke="white" stroke-width="2" stroke-dasharray="10 10"/>
<ellipse cx="56.5913" cy="52.5" rx="48.9135" ry="45.5" fill="white"/>
<path fill-rule="evenodd" clip-rule="evenodd" d="M61.6178 19.4983C61.27 19.7687 60.8172 20.478 60.6119 21.0749C60.2863 22.0211 60.0223 22.2483 58.556 22.8441C56.9674 23.4899 56.8437 23.501 56.3398 23.0452C56.0253 22.7605 55.3399 22.562 54.6707 22.562C53.6381 22.562 53.358 22.7446 51.5652 24.5837C49.8802 26.3128 49.595 26.751 49.595 27.6116C49.595 28.1647 49.7983 28.9798 50.0466 29.4226C50.4734 30.1833 50.4581 30.3175 49.7659 31.8629C49.3268 32.8432 48.8555 33.4981 48.5891 33.4981C47.7871 33.4981 46.5839 34.2944 46.2378 35.0543C46.0509 35.4644 45.8979 36.8718 45.8979 38.182C45.8979 40.3149 45.973 40.6536 46.6166 41.4184C47.0119 41.8882 47.7225 42.3574 48.1958 42.4615C48.903 42.6168 49.1834 42.937 49.7696 44.2597C50.4365 45.7641 50.4541 45.9182 50.0389 46.6238C49.7949 47.039 49.595 47.8609 49.595 48.4504C49.595 49.3955 49.8245 49.7515 51.5368 51.4635C53.2488 53.1758 53.6048 53.4053 54.5499 53.4053C55.1394 53.4053 55.9613 53.2054 56.3765 52.9614C57.0821 52.5462 57.2362 52.5638 58.7406 53.2307C60.0633 53.8168 60.3835 54.0973 60.5388 54.8045C60.6429 55.2777 61.1121 55.9884 61.5819 56.3837C62.3484 57.0287 62.6834 57.1024 64.8456 57.1024C66.375 57.1024 67.5416 56.9542 68.039 56.6971C68.8094 56.2987 69.5021 55.2035 69.5021 54.3836C69.5021 54.1507 70.2236 53.6437 71.1374 53.2344C72.6827 52.5422 72.817 52.5269 73.5777 52.9537C74.0205 53.202 74.8356 53.4053 75.3887 53.4053C76.2493 53.4053 76.6875 53.1201 78.4166 51.4351C80.2557 49.6423 80.4383 49.3622 80.4383 48.3296C80.4383 47.653 80.2395 46.9747 79.9469 46.6514C79.4799 46.1352 79.489 46.026 80.1343 44.4397C80.7275 42.9822 80.9522 42.7231 81.912 42.393C83.6999 41.7778 83.9923 41.1618 83.9997 37.9932C84.0054 35.5332 83.9366 35.1556 83.3615 34.487C83.0072 34.0752 82.2968 33.652 81.7829 33.5468C80.9692 33.3804 80.7619 33.1429 80.1804 31.7122L79.5123 30.0684L80.0985 28.9986C80.9243 27.4907 80.6067 26.5915 78.5079 24.4924C76.4045 22.3894 75.5104 22.0757 73.9909 22.9078L72.91 23.4999L71.2062 22.7648C69.7976 22.157 69.5021 21.9105 69.5021 21.3431C69.5021 20.9637 69.1304 20.2852 68.6709 19.8256C67.8638 19.0185 67.7583 18.9946 65.0449 19.0006C62.8375 19.0057 62.1174 19.1104 61.6178 19.4983ZM62.7883 21.4702C62.1379 23.484 62.0111 23.621 59.9086 24.5792C57.6195 25.6223 56.5417 25.7599 55.6925 25.1178C54.7998 24.4424 54.3454 24.6016 52.8597 26.1097C51.6497 27.3383 51.5026 27.6059 51.8047 28.0294C52.9436 29.6253 52.8768 30.464 51.3681 33.4981C50.7049 34.8319 50.4123 35.1237 49.3817 35.48L48.173 35.8978V38.1106C48.173 40.2777 48.1875 40.3235 48.8794 40.3235C49.9618 40.3235 51.1335 41.6752 52.0077 43.9321L52.7997 45.9768L52.194 47.2008L51.5885 48.4251L53.1205 49.9574C54.6147 51.4513 54.6696 51.478 55.3154 51.0256C56.2687 50.3578 57.8092 50.4528 59.7266 51.2972C61.8387 52.2277 62.3373 52.6804 62.5608 53.8709L62.7402 54.8273H64.9727H67.2051L67.51 53.6946C67.8353 52.4868 68.1277 52.255 70.6397 51.213C72.5107 50.4369 73.5402 50.3948 74.6479 51.0489L75.4732 51.5366L76.8957 50.1354C78.3989 48.6549 78.5576 48.2002 77.8825 47.3078C77.2748 46.5041 77.3675 45.5502 78.271 43.3095C79.0701 41.3276 79.675 40.7489 81.5176 40.204C81.9305 40.082 82.0152 39.7157 82.0152 38.0504C82.0152 36.1194 81.9857 36.0329 81.2332 35.7605C79.549 35.1504 79.2052 34.8049 78.3458 32.8594C77.3444 30.5923 77.2531 29.5366 77.9553 28.3479L78.4456 27.518L76.9639 26.0364L75.4823 24.5547L74.6524 25.045C73.475 25.7406 72.4077 25.6567 70.3044 24.7029C68.2952 23.7917 67.7989 23.3361 67.3695 22.0083C67.0897 21.1418 67.0507 21.1258 65.019 21.0436C63.2391 20.9717 62.9302 21.0306 62.7883 21.4702ZM62.0773 26.4979C58.7998 27.4478 55.5998 30.1182 54.2868 32.9996C52.1982 37.5834 53.1308 42.7598 56.6856 46.3147C63.3193 52.9483 74.4593 49.6176 76.615 40.3562C77.5836 36.1941 75.6626 31.1258 72.131 28.527C69.3762 26.4999 65.0702 25.6308 62.0773 26.4979ZM61.8237 28.8259C60.0502 29.3899 57.9733 30.9972 56.9629 32.5875C53.7038 37.7165 55.4892 44.1155 60.9239 46.7845C62.3028 47.4616 62.8833 47.5754 64.9579 47.5754C67.1235 47.5754 67.5834 47.4758 69.2829 46.6392C72.6099 45.0014 74.343 42.3162 74.5523 38.4749C74.6544 36.6008 74.5631 35.8992 74.0336 34.4955C73.1628 32.1857 70.8342 29.8432 68.5651 28.9943C66.6366 28.2728 63.7865 28.2014 61.8237 28.8259ZM67.2981 32.5489C66.164 32.9407 65.2363 33.3702 65.2363 33.5033C65.2363 33.6366 65.3663 34.0871 65.525 34.5049C65.763 35.1308 65.9376 35.2329 66.5203 35.0867C66.9091 34.9892 67.227 34.9798 67.227 35.0663C67.227 35.2181 65.8204 38.0961 65.6547 38.283C65.6097 38.3339 65.0381 38.0216 64.3846 37.5891C62.8651 36.5835 62.6728 36.7035 60.7097 39.8852L59.1689 42.3822L59.8565 42.9105C60.2345 43.2012 60.6719 43.4401 60.8283 43.4412C60.9847 43.4421 61.6286 42.5556 62.2593 41.4707L63.406 39.4985L64.7065 40.3442C65.4217 40.8098 66.1936 41.1189 66.4211 41.0316C66.6489 40.944 67.4011 39.7183 68.0924 38.3077C69.2729 35.8995 69.3651 35.7889 69.6014 36.4979C69.8212 37.1568 69.964 37.2307 70.7233 37.0789C71.2019 36.9833 71.6572 36.8414 71.7349 36.7635C72.0201 36.4783 70.5149 32.3137 70.0331 32.056C69.7618 31.9107 69.499 31.8021 69.4498 31.8143C69.4003 31.8265 68.4323 32.1573 67.2981 32.5489ZM29.2612 48.2733C28.0269 48.7837 26.8439 50.649 26.8439 52.0841C26.8439 52.4319 27.0856 53.1901 27.3808 53.7694L27.9177 54.8224L26.8573 55.108C24.5199 55.7373 24 57.1837 24 63.0555C24 67.3961 24.0276 67.6196 24.6015 67.9265C24.9322 68.1037 25.5721 68.1944 26.0234 68.1281L26.8439 68.0075V73.1627C26.8439 76.7929 26.9448 78.4187 27.1852 78.659C27.657 79.1308 34.2781 79.1308 34.7499 78.659C35.0004 78.4085 35.0923 75.9718 35.0951 69.4875L35.0991 60.6572L37.8506 59.0931C40.8099 57.4109 45.0447 53.9076 45.0447 53.1417C45.0447 52.522 42.4614 49.9927 41.8283 49.9927C41.5561 49.9927 40.517 50.7523 39.5191 51.6805C37.7937 53.2856 35.2956 54.8273 34.4203 54.8273C34.0961 54.8273 34.1265 54.6134 34.571 53.7608C35.5453 51.8921 34.8898 49.702 33.014 48.5582C32.0755 47.986 30.2844 47.8501 29.2612 48.2733ZM29.8888 50.566C28.8613 51.3742 28.8525 52.5857 29.8684 53.3846C30.8105 54.126 31.5207 54.1319 32.2473 53.4053C33.949 51.7036 31.7729 49.0841 29.8888 50.566ZM40.1621 53.9354C39.3282 54.6965 37.8497 55.7203 36.8768 56.2105C35.1475 57.0822 35.0178 57.1024 31.162 57.1024C25.9913 57.1024 26.1685 56.9292 26.0339 62.1088C25.9472 65.4509 25.9907 65.9184 26.3894 65.9184C26.7771 65.9184 26.8439 65.4785 26.8439 62.9323V59.9463H27.9814H29.119V68.4779C29.119 75.872 29.1759 77.0096 29.5456 77.0096C29.9102 77.0096 29.9722 76.2039 29.9722 71.464V65.9184H30.9675H31.9629V71.464C31.9629 76.8199 31.9822 77.0096 32.5317 77.0096C33.0882 77.0096 33.1004 76.8199 33.1004 68.2157V59.4221L36.3732 57.5216C39.6926 55.594 42.6169 53.2796 42.3266 52.8098C42.0433 52.3517 41.7046 52.5277 40.1621 53.9354ZM72.538 61.1549C72.0958 61.4788 72.0594 62.2822 72.1282 70.1842L72.2038 78.8581L75.8787 78.938C78.6276 78.9977 79.6116 78.9263 79.7845 78.6536C79.9119 78.4534 80.0177 74.4865 80.0202 69.8387C80.0242 61.7726 79.9995 61.3747 79.4745 61.0938C78.6759 60.6663 73.1386 60.7153 72.538 61.1549ZM74.0524 70.0421V77.0096H76.0431H78.0338V70.0421V63.0745H76.0431H74.0524V70.0421ZM61.3197 66.2517C60.9165 66.655 60.8161 78.0322 61.2105 78.6536C61.3834 78.9263 62.3674 78.9977 65.1163 78.938L68.7912 78.8581V72.4594V66.0606L65.2301 65.9816C62.7018 65.9252 61.5677 66.0037 61.3197 66.2517ZM64.8808 68.1202L62.9612 68.2194V72.6146V77.0096H64.9519H66.9426V72.4594C66.9426 69.9567 66.9105 67.9342 66.8716 67.9649C66.8326 67.9956 65.9368 68.0653 64.8808 68.1202ZM50.2206 71.3787C49.7499 71.8493 49.7499 78.1884 50.2206 78.659C50.6924 79.1308 57.3135 79.1308 57.7853 78.659C58.256 78.1884 58.256 71.8493 57.7853 71.3787C57.5575 71.1509 56.3003 71.0374 54.003 71.0374C51.7057 71.0374 50.4484 71.1509 50.2206 71.3787ZM52.1545 75.0189V77.0096H54.003H55.8515V75.0189V73.0281H54.003H52.1545V75.0189Z" fill="#00224C"/>
</svg>
