<svg width="100" height="116" viewBox="0 0 100 116" fill="none" xmlns="http://www.w3.org/2000/svg">
<path id="Vector" fill-rule="evenodd" clip-rule="evenodd" d="M47.0778 0.749824C46.7893 1.03885 46.5523 1.99298 46.5523 2.87137C46.5523 4.09799 45.8839 4.4671 43.6607 4.4671C35.5212 4.4671 23.3039 10.3764 15.6637 18.0095C8.07575 25.5886 2.01812 38.0314 2.15407 45.7594C2.19329 47.9845 2.45909 47.6224 3.74975 43.5943C7.30014 32.513 14.6894 23.4766 24.5667 18.1383C28.9877 15.7487 38.5583 13.2179 43.2843 13.1875C45.28 13.1753 45.6808 13.5461 45.6808 15.4074C45.6808 17.3252 45.9597 17.5568 47.6417 17.0345C50.9358 16.0133 61.3683 10.5802 61.3474 9.89677C61.3177 8.90347 47.6721 0.156104 47.0778 0.749824ZM65.9427 15.8113C64.4594 16.4068 63.9818 17.3052 63.9818 19.4999C63.9818 23.1702 62.6572 24.4899 58.9726 24.4899C56.5107 24.4899 55.864 24.9322 54.8374 27.3192C53.6888 29.991 53.7402 30.2373 55.7516 31.7443C58.4514 33.7683 58.4715 36.6917 55.8013 39.1971C53.9712 40.9139 53.837 41.4571 54.6849 43.7014C55.4684 45.7742 56.1612 46.2539 58.373 46.2539C61.7221 46.2539 63.9818 48.573 63.9818 52.0083C63.9818 54.0532 64.5056 54.7749 66.5466 55.5445C68.7218 56.3654 69.3379 56.2618 70.6033 54.8654C72.606 52.6551 77.339 52.6864 78.9085 54.9203C80.0048 56.4812 80.3386 56.5203 82.9364 55.3973C85.265 54.391 85.7687 53.6893 85.7687 51.4572C85.7687 48.0463 87.3226 46.4619 91.0211 46.1006C93.3358 45.8752 94.0835 45.3067 94.7633 43.2548C95.4901 41.0636 95.341 40.5099 93.741 39.4487C91.3253 37.846 91.3209 34.3255 93.7323 31.7626C95.3942 29.9945 95.4761 29.4965 94.4975 27.1356C93.6007 24.9731 92.8948 24.4899 90.6307 24.4899C87.1248 24.4899 85.7687 23.1353 85.7687 19.6331C85.7687 17.3714 85.2851 16.6662 83.1203 15.7704C80.7569 14.7928 80.2584 14.8746 78.4884 16.5348C75.9934 18.8774 72.5798 18.9332 71.1558 16.6549C69.9741 14.7649 68.958 14.6004 65.9427 15.8113ZM71.3685 28.2969C66.2442 30.5655 65.113 37.0712 69.1436 41.0975C71.9907 43.9417 74.9346 44.3317 78.7342 42.3686C81.6075 40.8843 82.2828 39.4861 82.2828 35.0176C82.2828 29.4025 76.6731 25.9481 71.3685 28.2969ZM24.9833 40.1869C23.4181 40.8155 23.0224 41.6617 23.0224 44.3848C23.0224 47.0826 22.5571 48.0994 20.7906 49.2556C18.6712 50.6423 18.401 50.6232 15.4188 48.8655L12.2789 47.0147L10.0906 49.2007L7.90146 51.3867L9.48145 54.8854C10.9603 58.1614 10.9682 58.5235 9.61391 60.5893C8.46705 62.3374 7.44829 62.7945 4.7014 62.7945C2.79548 62.7945 1.23554 62.8946 1.23554 63.0182C1.23554 63.1409 0.866031 64.5286 0.413734 66.1026C-0.365366 68.8161 -0.252074 69.0381 2.59243 70.3936C5.18855 71.6297 5.59292 72.2435 5.59292 74.9457C5.59292 77.5992 5.15108 78.3061 2.65517 79.6493C-0.215471 81.1937 -0.262531 81.3095 0.598487 84.6977C1.46212 88.099 1.5484 88.1608 5.01949 87.8857C8.08795 87.6428 8.73372 87.9144 9.86926 89.9219C11.0632 92.0321 11.0292 92.5179 9.49539 95.3629L7.81083 98.4873L10.1098 100.783L12.4079 103.079L15.3186 101.291C17.9609 99.666 18.4498 99.6173 20.6259 100.763C22.6782 101.844 23.0224 102.568 23.0224 105.806C23.0224 109.344 23.1976 109.622 25.7458 110.131C29.6666 110.915 29.5672 110.959 31.3625 107.628C32.6941 105.158 33.5141 104.581 35.6955 104.581C37.9125 104.581 38.6419 105.117 39.8411 107.628C41.3731 110.839 42.4198 111.209 46.0599 109.826C47.9336 109.114 48.2953 108.426 48.2953 105.574C48.2953 102.887 48.7632 101.863 50.514 100.718C52.6213 99.3387 52.8879 99.3614 55.8213 101.172L58.9098 103.079L61.1687 100.823L63.4276 98.5665L61.7517 95.4578C60.2127 92.6032 60.1848 92.1557 61.4171 89.9776C62.5212 88.0223 63.3622 87.6053 66.1928 87.6053C69.3458 87.6053 69.7118 87.3546 70.6382 84.5584C71.6247 81.5837 71.5733 81.4653 68.4691 79.5631C65.9069 77.9935 65.2891 77.0881 65.2891 74.8996C65.2891 72.6466 65.8363 71.9048 68.4996 70.5476C71.5532 68.992 71.67 68.7726 70.8961 66.0765C70.4482 64.5173 70.0822 63.1636 70.0822 63.0678C70.0822 62.9729 68.4281 62.7744 66.4063 62.6264C63.479 62.414 62.4663 61.8873 61.4345 60.0426C60.258 57.9402 60.2938 57.4362 61.8223 54.6016L63.5069 51.4772L61.2079 49.1815L58.9098 46.8859L55.8213 48.7924C52.8879 50.6032 52.6213 50.6258 50.514 49.2468C48.7763 48.1099 48.2953 47.0722 48.2953 44.464C48.2953 40.7833 48.1506 40.6135 44.3117 39.7917C41.9004 39.2763 41.4716 39.5245 39.9744 42.3015C38.6184 44.8157 37.8123 45.3833 35.5979 45.3833C33.3895 45.3833 32.5773 44.8157 31.2405 42.3364C29.5559 39.2111 28.4021 38.8141 24.9833 40.1869ZM96.0103 55.83C97.0631 62.1546 96.5907 72.4263 95.0038 77.7402C92.4077 86.431 85.7783 95.0712 77.5054 100.544C73.2918 103.332 71.982 103.416 71.0722 100.958C70.4465 99.2673 69.8199 99.8053 64.9152 106.241C61.9112 110.182 59.5905 113.517 59.7569 113.65C60.1064 113.93 74.3219 115.901 75.9812 115.899C76.688 115.898 76.9154 115.192 76.6113 113.94C76.2383 112.402 76.8021 111.532 79.237 109.891C84.6681 106.231 91.7079 97.8196 94.8164 91.2756C99.8152 80.7523 100.926 71.0935 98.379 60.2986C96.7415 53.3628 95.0761 50.2201 96.0103 55.83ZM30.2906 57.0792C24.7401 58.8134 21.6133 61.5043 19.0363 66.7651C12.7652 79.5701 21.4834 93.6931 35.6589 93.6931C39.8027 93.6931 41.7418 93.1917 45.0037 91.2791C52.3093 86.9942 56.1124 77.1586 53.5102 69.281C51.8021 64.1107 46.222 58.6698 41.055 57.1367C35.8576 55.5949 35.054 55.5906 30.2906 57.0792ZM41.9082 62.5542C40.2454 62.8032 39.5944 63.3168 39.9082 64.1334C40.5932 65.9171 34.715 70.3892 28.884 72.5203C26.1162 73.5328 24.0307 74.5383 24.2486 74.7559C25.0748 75.5812 33.7006 73.1558 38.0746 70.8689C40.5801 69.5587 43.0228 68.4792 43.5021 68.4696C43.9815 68.4609 44.6621 68.0613 45.0142 67.5825C45.8569 66.4369 45.8673 61.8865 45.0272 62.0545C44.6682 62.1259 43.2642 62.3513 41.9082 62.5542ZM44.8094 78.0292V85.5447L47.2059 85.2688C49.5972 84.9945 49.6025 84.9797 49.6025 78.0292C49.6025 71.0787 49.5972 71.0639 47.2059 70.7897L44.8094 70.5137V78.0292ZM36.9661 79.7703C36.9661 85.2261 37.0445 85.4289 39.1448 85.4289C41.245 85.4289 41.3234 85.2261 41.3234 79.7703C41.3234 74.3145 41.245 74.1117 39.1448 74.1117C37.0445 74.1117 36.9661 74.3145 36.9661 79.7703ZM29.1228 80.6409C29.1228 85.1678 29.2413 85.4289 31.3015 85.4289C33.3616 85.4289 33.4802 85.1678 33.4802 80.6409C33.4802 76.114 33.3616 75.8528 31.3015 75.8528C29.2413 75.8528 29.1228 76.114 29.1228 80.6409ZM20.7479 79.7068C19.6768 82.4952 20.7941 84.9876 23.2403 85.2688C25.507 85.5299 25.6369 85.3532 25.6369 82.0042C25.6369 78.7971 25.4295 78.4645 23.4312 78.4645C22.2172 78.4645 21.0102 79.0234 20.7479 79.7068Z" fill="white"/>
</svg>
