<svg width="85" height="85" viewBox="0 0 85 85" fill="none" xmlns="http://www.w3.org/2000/svg">
<circle cx="42.5" cy="42.5" r="42.5" fill="white"/>
<path d="M51.562 36.4609C51.0511 35.9392 50.4292 35.5392 49.7426 35.2907C49.0559 35.0422 48.3221 34.9516 47.5956 35.0256C46.8692 35.0996 46.1687 35.3362 45.5462 35.718C44.9237 36.0998 44.3952 36.6169 44 37.2309C43.6049 36.6167 43.0764 36.0995 42.4539 35.7176C41.8315 35.3357 41.1309 35.099 40.4044 35.025C39.6779 34.951 38.944 35.0417 38.2573 35.2903C37.5706 35.5389 36.9488 35.939 36.438 36.4609C35.5163 37.4035 35.0002 38.6695 35.0002 39.9879C35.0002 41.3063 35.5163 42.5722 36.438 43.5149L44 51.1999L51.564 43.5159C52.485 42.5726 53.0004 41.3064 53 39.988C52.9997 38.6696 52.4835 37.4037 51.562 36.4609Z" fill="#DFDF00" stroke="#00224C" stroke-width="2" stroke-miterlimit="10" stroke-linecap="round" stroke-linejoin="round"/>
<path d="M62 59H26C24.9391 59 23.9217 58.5786 23.1716 57.8284C22.4214 57.0783 22 56.0609 22 55V19H38L43 27H66V55C66 56.0609 65.5786 57.0783 64.8284 57.8284C64.0783 58.5786 63.0609 59 62 59Z" stroke="#00224C" stroke-width="2" stroke-miterlimit="10" stroke-linecap="round" stroke-linejoin="round"/>
</svg>
