<svg width="115" height="106" viewBox="0 0 115 106" fill="none" xmlns="http://www.w3.org/2000/svg">
<path d="M113.029 53C113.029 51.2127 112.932 49.4462 112.743 47.7047L111.749 47.8127C111.37 44.3198 110.612 40.931 109.513 37.6824L110.461 37.3622C109.323 33.9975 107.829 30.7814 106.019 27.7523L105.161 28.2651C103.389 25.2983 101.308 22.5132 98.958 19.9474L99.6955 19.2721C97.3273 16.6858 94.6923 14.3191 91.8307 12.2088L91.2372 13.0136C88.4758 10.9771 85.4986 9.18292 82.3427 7.6655L82.776 6.76427C79.6381 5.25552 76.3271 4.01592 72.8785 3.078L72.6161 4.04295C69.3267 3.14834 65.9093 2.53279 62.3954 2.22573L62.4825 1.22953C60.7443 1.07764 58.9833 1 57.203 1C55.4227 1 53.6617 1.07764 51.9235 1.22953L52.0106 2.22573C48.4967 2.5328 45.0793 3.14834 41.7899 4.04295L41.5275 3.078C38.0789 4.01592 34.7679 5.25552 31.63 6.76427L32.0633 7.66551C28.9074 9.18292 25.9302 10.9771 23.1688 13.0136L22.5753 12.2088C19.7137 14.3191 17.0787 16.6858 14.7105 19.2721L15.448 19.9474C13.0984 22.5132 11.0174 25.2983 9.24525 28.2651L8.38674 27.7523C6.57735 30.7814 5.0829 33.9975 3.94539 37.3622L4.89272 37.6824C3.79445 40.931 3.03625 44.3198 2.65694 47.8127L1.66278 47.7047C1.47367 49.4462 1.37683 51.2127 1.37683 53C1.37683 54.7873 1.47367 56.5538 1.66278 58.2953L2.65694 58.1873C3.03625 61.6802 3.79445 65.069 4.89272 68.3176L3.94539 68.6378C5.0829 72.0025 6.57736 75.2186 8.38675 78.2477L9.24525 77.7349C11.0174 80.7017 13.0984 83.4868 15.448 86.0526L14.7105 86.7279C17.0787 89.3142 19.7137 91.6809 22.5753 93.7913L23.1689 92.9864C25.9302 95.0229 28.9074 96.8171 32.0633 98.3345L31.63 99.2357C34.7679 100.744 38.0789 101.984 41.5275 102.922L41.7899 101.957C45.0793 102.852 48.4967 103.467 52.0106 103.774L51.9235 104.77C53.6617 104.922 55.4227 105 57.203 105C58.9833 105 60.7443 104.922 62.4825 104.77L62.3954 103.774C65.9093 103.467 69.3267 102.852 72.6161 101.957L72.8785 102.922C76.3271 101.984 79.6381 100.744 82.776 99.2357L82.3427 98.3345C85.4986 96.8171 88.4758 95.0229 91.2372 92.9864L91.8307 93.7912C94.6923 91.6809 97.3273 89.3142 99.6955 86.7279L98.958 86.0526C101.308 83.4868 103.389 80.7017 105.161 77.7349L106.019 78.2477C107.829 75.2186 109.323 72.0025 110.461 68.6378L109.513 68.3176C110.612 65.069 111.37 61.6802 111.749 58.1873L112.743 58.2953C112.932 56.5538 113.029 54.7873 113.029 53Z" fill="white" stroke="#3D4248" stroke-width="2" stroke-dasharray="10 10"/>
<ellipse cx="56.6655" cy="52.5" rx="48.9135" ry="45.5" fill="#00224C"/>
<path fill-rule="evenodd" clip-rule="evenodd" d="M31.3507 32.2756C28.9579 34.0772 27 35.7117 27 35.9077C27 36.5108 35.9285 42.9653 36.3781 42.6876C36.61 42.5439 36.7999 41.7068 36.7999 40.8269V39.227L44.0478 39.1155C54.0102 38.9624 53.5014 38.2217 43.334 38.0763L35.5749 37.9657V39.4034C35.5749 40.1944 35.472 40.8416 35.3467 40.8416C35.2209 40.8416 33.6488 39.7231 31.853 38.3561L28.588 35.8701L31.775 33.4667C33.528 32.1445 35.0886 31.058 35.2429 31.0523C35.3969 31.0465 35.5806 31.6386 35.6513 32.3687L35.7791 33.6958L48.8456 33.9118C59.9783 34.0955 62.1817 34.2332 63.7321 34.842C66.4197 35.8975 69.1531 37.7677 71.1902 39.9457C74.8338 43.8411 76.4079 47.8685 76.4079 53.2956C76.4079 57.8852 75.6275 60.3891 72.8129 64.8309C72.2776 65.6753 72.2988 65.7497 73.0771 65.7497C73.6427 65.7497 74.2576 65.1739 74.9309 64.0143C77.897 58.904 78.5892 52.0857 76.6949 46.6382C74.5867 40.5765 69.7803 35.7681 63.6337 33.5725C60.7762 32.5521 60.3262 32.5149 48.7435 32.3487L36.7999 32.1772V30.5888C36.7999 29.53 36.6166 29 36.2507 29C35.9485 29 33.7436 30.4741 31.3507 32.2756ZM54.9506 38.2956C54.7154 38.4606 54.2997 39.3593 54.0269 40.2928C53.3785 42.5137 51.7954 43.2001 50.0204 42.0298C48.3891 40.9543 47.7729 41.0474 46.2715 42.5966C44.7607 44.1551 44.6847 44.6933 45.7464 46.3038C46.9167 48.0788 46.2303 49.6619 44.0094 50.3103C41.9436 50.9134 41.7125 51.2139 41.7125 53.2956C41.7125 55.3773 41.9436 55.6778 44.0094 56.2809C46.2303 56.9293 46.9167 58.5124 45.7464 60.2874C44.6709 61.9187 44.764 62.5349 46.3132 64.0363C47.8469 65.523 48.2033 65.5888 49.9167 64.7031C51.267 64.0045 53.5414 64.2425 53.5414 65.082C53.5414 65.3532 53.9089 65.5745 54.3581 65.5745C54.8072 65.5745 55.1747 65.4712 55.1747 65.3446C55.1747 64.6133 53.7497 63.2968 52.5177 62.8905C51.2638 62.4765 50.9077 62.53 49.6239 63.3234L48.1596 64.2282L47.1388 63.2074L46.118 62.1866L46.9771 60.5026C47.8117 58.866 47.8158 58.7758 47.1159 57.3115C46.5594 56.1474 46.0008 55.6741 44.6602 55.2307C43.0804 54.708 42.9248 54.5345 42.9248 53.2956C42.9248 52.0567 43.0804 51.8832 44.6602 51.3605C46.0008 50.9171 46.5594 50.4438 47.1159 49.2797C47.8158 47.8154 47.8117 47.7252 46.9771 46.0886L46.118 44.4046L47.1196 43.403L48.1212 42.4014L49.8052 43.2605C51.4418 44.0951 51.532 44.0992 52.9963 43.3993C54.1604 42.8428 54.6337 42.2842 55.0771 40.9436C55.5998 39.3638 55.7733 39.2082 57.0122 39.2082C58.2511 39.2082 58.4246 39.3638 58.9473 40.9436C59.3907 42.2842 59.864 42.8428 61.0281 43.3993C62.4924 44.0992 62.5826 44.0951 64.2192 43.2605L65.9032 42.4014L66.9048 43.403L67.9064 44.4046L67.0473 46.0886C66.2127 47.7252 66.2086 47.8154 66.9085 49.2797C67.465 50.4438 68.0236 50.9171 69.3642 51.3605C70.944 51.8832 71.0996 52.0567 71.0996 53.2956C71.0996 54.5345 70.944 54.708 69.3642 55.2307C68.0236 55.6741 67.465 56.1474 66.9085 57.3115C66.2086 58.7758 66.2127 58.866 67.0473 60.5026L67.9064 62.1866L66.8856 63.2074L65.8648 64.2282L64.4005 63.3234C63.1167 62.53 62.7607 62.4765 61.5067 62.8905C60.2123 63.3176 58.8497 64.621 58.8497 65.4324C58.8497 65.6067 59.2172 65.7497 59.6664 65.7497C60.1155 65.7497 60.483 65.4887 60.483 65.1694C60.483 64.2568 62.6945 63.9718 64.1078 64.7031C65.8464 65.6022 66.276 65.5185 67.7529 63.9947C69.2637 62.4361 69.3397 61.8979 68.278 60.2874C67.1077 58.5124 67.7942 56.9293 70.0151 56.2809C72.0808 55.6778 72.3119 55.3773 72.3119 53.2956C72.3119 51.2139 72.0808 50.9134 70.0151 50.3103C67.7942 49.6619 67.1077 48.0788 68.278 46.3038C69.3536 44.6725 69.2605 44.0563 67.7113 42.5549C66.1527 41.0441 65.6145 40.9681 64.004 42.0298C62.229 43.2001 60.6459 42.5137 59.9975 40.2928C59.3944 38.227 59.0939 37.9959 57.0122 37.9959C56.1139 37.9959 55.1862 38.1307 54.9506 38.2956ZM39.0792 42.7811C36.178 47.2278 35.4361 54.5088 37.3295 59.953C39.4422 66.0281 44.6566 71.2037 50.6537 73.1788C53.0984 73.9836 54.4009 74.0771 65.2809 74.2302L77.2245 74.3981V76.0244C77.2245 77.3013 77.3658 77.6227 77.8807 77.5189C78.9023 77.3135 86.9722 71.325 86.9999 70.7517C87.0273 70.1837 78.541 63.7452 77.7349 63.7223C77.4001 63.7129 77.2245 64.3401 77.2245 65.5455V67.383H70.147C64.1278 67.383 63.069 67.4744 63.069 67.9955C63.069 68.5181 64.1931 68.608 70.7345 68.608H78.4001L78.5271 67.1523L78.6537 65.697L81.7161 67.9885C83.4005 69.249 84.8309 70.4283 84.8946 70.6092C84.9983 70.9024 79.1641 75.5496 78.6925 75.5496C78.5871 75.5496 78.4438 74.9522 78.3732 74.2225L78.2453 72.8954L64.9673 72.6913L51.6892 72.4871L48.875 71.0579C43.7015 68.4307 39.9449 64.1751 38.3903 59.1792C36.8354 54.1841 37.6782 46.9894 40.2601 43.2111C41.4594 41.4561 41.5039 41.2499 40.6848 41.2499C40.3511 41.2499 39.6284 41.9391 39.0792 42.7811ZM53.3822 47.1155C47.1507 50.8877 49.7672 60.4414 57.0318 60.4414C62.4867 60.4414 65.9273 54.5128 63.2437 49.7382C61.3307 46.3344 56.7047 45.1041 53.3822 47.1155ZM54.0482 48.1894C51.2429 49.8999 50.2678 53.5729 51.9061 56.2597C54.2805 60.1543 59.7439 60.1543 62.1184 56.2597C64.4214 52.483 61.4863 47.3777 57.0122 47.3777C56.1012 47.3777 54.7905 47.7366 54.0482 48.1894ZM54.7664 67.1788C54.7664 67.5157 54.9612 67.7913 55.1988 67.7913C55.4365 67.7913 55.5177 67.975 55.3789 68.1996C55.238 68.4279 55.5426 68.6027 56.0694 68.5957C56.9065 68.5847 56.9322 68.5365 56.2976 68.167C55.9044 67.9379 55.5831 67.4842 55.5831 67.1584C55.5831 66.833 55.3993 66.5663 55.1747 66.5663C54.9502 66.5663 54.7664 66.8419 54.7664 67.1788ZM59.0714 66.9465C58.942 67.1555 59.004 67.4299 59.2086 67.5565C59.4132 67.6831 59.686 67.512 59.815 67.1764C60.069 66.5149 59.4552 66.325 59.0714 66.9465ZM57.621 68C57.2009 68.5059 57.2617 68.608 57.9832 68.608C58.4597 68.608 58.8497 68.4352 58.8497 68.2237C58.8497 67.5165 58.131 67.3854 57.621 68Z" fill="white"/>
</svg>
