<svg width="114" height="106" viewBox="0 0 114 106" fill="none" xmlns="http://www.w3.org/2000/svg">
<path d="M112.955 53C112.955 51.2127 112.858 49.4462 112.669 47.7047L111.675 47.8127C111.296 44.3198 110.538 40.931 109.439 37.6824L110.387 37.3622C109.249 33.9975 107.755 30.7814 105.945 27.7523L105.087 28.2651C103.315 25.2983 101.234 22.5132 98.8842 19.9474L99.6217 19.2721C97.2534 16.6858 94.6184 14.3191 91.7568 12.2088L91.1633 13.0136C88.4019 10.9771 85.4247 9.18292 82.2688 7.6655L82.7021 6.76427C79.5642 5.25552 76.2533 4.01592 72.8047 3.078L72.5422 4.04295C69.2528 3.14834 65.8354 2.53279 62.3216 2.22573L62.4086 1.22953C60.6705 1.07764 58.9094 1 57.1291 1C55.3489 1 53.5878 1.07764 51.8497 1.22953L51.9367 2.22573C48.4229 2.5328 45.0054 3.14834 41.7161 4.04295L41.4536 3.078C38.005 4.01592 34.6941 5.25552 31.5562 6.76427L31.9895 7.66551C28.8335 9.18292 25.8563 10.9771 23.095 13.0136L22.5015 12.2088C19.6399 14.3191 17.0049 16.6858 14.6366 19.2721L15.3741 19.9474C13.0246 22.5132 10.9435 25.2983 9.17139 28.2651L8.31289 27.7523C6.5035 30.7814 5.00905 33.9975 3.87154 37.3622L4.81887 37.6824C3.7206 40.931 2.96239 44.3198 2.58309 47.8127L1.58893 47.7047C1.39981 49.4462 1.30298 51.2127 1.30298 53C1.30298 54.7873 1.39981 56.5538 1.58893 58.2953L2.58308 58.1873C2.96239 61.6802 3.7206 65.069 4.81887 68.3176L3.87154 68.6378C5.00905 72.0025 6.5035 75.2186 8.31289 78.2477L9.1714 77.7349C10.9435 80.7017 13.0246 83.4868 15.3741 86.0526L14.6366 86.7279C17.0049 89.3142 19.6399 91.6809 22.5015 93.7913L23.095 92.9864C25.8564 95.0229 28.8336 96.8171 31.9895 98.3345L31.5562 99.2357C34.6941 100.744 38.005 101.984 41.4536 102.922L41.7161 101.957C45.0054 102.852 48.4229 103.467 51.9367 103.774L51.8497 104.77C53.5878 104.922 55.3489 105 57.1291 105C58.9094 105 60.6705 104.922 62.4086 104.77L62.3216 103.774C65.8354 103.467 69.2529 102.852 72.5422 101.957L72.8047 102.922C76.2533 101.984 79.5642 100.744 82.7021 99.2357L82.2688 98.3345C85.4248 96.8171 88.402 95.0229 91.1633 92.9864L91.7568 93.7912C94.6184 91.6809 97.2534 89.3142 99.6217 86.7279L98.8842 86.0526C101.234 83.4868 103.315 80.7017 105.087 77.7349L105.945 78.2477C107.755 75.2186 109.249 72.0025 110.387 68.6378L109.439 68.3176C110.538 65.069 111.296 61.6802 111.675 58.1873L112.669 58.2953C112.858 56.5538 112.955 54.7873 112.955 53Z" stroke="white" stroke-width="2" stroke-dasharray="10 10"/>
<ellipse cx="56.5915" cy="52.5" rx="48.9135" ry="45.5" fill="white"/>
<path fill-rule="evenodd" clip-rule="evenodd" d="M29.8505 29.6388C29.1152 30.1536 28.9083 30.6577 28.9995 31.7115C29.1648 33.6337 28.3409 34.5679 27.0136 33.9632C25.4463 33.2491 23.7531 34.5209 23.8981 36.3027C23.9584 37.0448 23.7811 38.0685 23.5038 38.5777C23.2048 39.1273 23 41.3264 23 43.9844V48.4649H38.1636C52.1501 48.4649 53.3629 48.5226 53.781 49.207C54.1457 49.8032 53.0834 52.5596 48.3705 63.2473C45.1452 70.5609 42.5063 76.6198 42.5063 76.7109C42.5063 76.8017 48.8035 76.8763 56.5 76.8763C64.1965 76.8763 70.4937 76.8097 70.4937 76.7288C70.4937 76.6478 67.8484 70.5919 64.6155 63.2719C59.8233 52.4209 58.8238 49.824 59.2046 49.2138C59.6376 48.5209 60.8028 48.4649 74.8364 48.4649H90V43.6184C90 38.0485 89.7044 37.4396 87.0015 37.4396C85.5203 37.4396 85.3354 37.3255 85.3354 36.4104C85.3354 34.7833 83.3759 33.4925 81.3218 33.7665C79.4937 34.0107 78.5506 34.9271 78.5506 36.4605C78.5506 37.3366 78.3518 37.4396 76.6666 37.4396C73.9705 37.4396 73.462 38.3297 73.462 43.0468V46.7687H66.6569H59.8517L58.8789 45.6378C57.5461 44.0883 55.4539 44.0883 54.1211 45.6378L53.1483 46.7687H46.3431H39.538V43.428C39.538 41.1288 39.3582 39.9385 38.9613 39.609C38.6441 39.3457 38.4715 38.6761 38.5775 38.1206C38.9087 36.3892 38.0156 35.3198 36.2367 35.3159C34.9421 35.3134 34.5668 35.1094 34.1313 34.1714C33.84 33.5434 33.6013 32.4112 33.6013 31.6543C33.6013 30.7137 33.3032 30.07 32.6586 29.6188C31.4738 28.789 31.0599 28.7919 29.8505 29.6388ZM30.73 31.5826C30.9921 32.3688 31.9051 32.499 31.9051 31.7501C31.9051 31.3812 31.6031 31.0788 31.2338 31.0788C30.8644 31.0788 30.6376 31.3053 30.73 31.5826ZM30.0872 34.7346C29.9209 34.9008 29.7848 37.6762 29.7848 40.9028V46.7687H31.2804H32.7765L32.6586 40.726L32.5411 34.6833L31.4653 34.5577C30.8733 34.4886 30.253 34.5683 30.0872 34.7346ZM25.5443 36.3795C25.5443 36.7293 25.8305 37.0155 26.1804 37.0155C26.5302 37.0155 26.8165 36.7293 26.8165 36.3795C26.8165 36.0296 26.5302 35.7434 26.1804 35.7434C25.8305 35.7434 25.5443 36.0296 25.5443 36.3795ZM80.2468 36.5915C80.2468 37.3713 80.458 37.4735 81.837 37.359C82.9095 37.2704 83.4272 37.0202 83.4272 36.5915C83.4272 36.1628 82.9095 35.9126 81.837 35.824C80.458 35.7095 80.2468 35.8117 80.2468 36.5915ZM35.7215 37.6516C35.7215 38.0015 36.0078 38.2877 36.3576 38.2877C36.7074 38.2877 36.9937 38.0015 36.9937 37.6516C36.9937 37.3018 36.7074 37.0155 36.3576 37.0155C36.0078 37.0155 35.7215 37.3018 35.7215 37.6516ZM25.4383 38.7571C24.8183 39.1087 24.6962 39.8016 24.6962 42.9735V46.7687H26.4089H28.1217L27.9991 43.1087C27.8948 39.9958 27.7498 39.3652 27.0285 38.8924C26.4357 38.504 25.9573 38.4633 25.4383 38.7571ZM75.4411 39.4186C75.2854 39.5738 75.1582 41.2912 75.1582 43.2351V46.7687H81.731H88.3038V42.9523V39.1358H82.0139C78.554 39.1358 75.5963 39.263 75.4411 39.4186ZM35.1563 40.6908C35.0006 40.846 34.8734 42.2772 34.8734 43.8712V46.7687H36.3576H37.8418V43.8457C37.8418 41.5715 37.6929 40.8655 37.1709 40.6654C36.294 40.3287 35.5082 40.3388 35.1563 40.6908ZM55.3928 46.9511C54.9704 48.0515 55.562 48.9606 56.6043 48.8126C57.3048 48.713 57.5601 48.3941 57.5601 47.6168C57.5601 46.8395 57.3048 46.5206 56.6043 46.421C56.0306 46.3396 55.5459 46.5516 55.3928 46.9511ZM55.8012 51.0928C55.6074 51.3968 53.1322 56.8929 50.3004 63.3067L45.152 74.9681L50.8262 75.086C53.9468 75.1509 59.0549 75.1509 62.1772 75.086L67.8544 74.9681L62.4952 62.9098C59.5477 56.2776 56.9151 50.7811 56.645 50.6959C56.3749 50.6102 55.995 50.7891 55.8012 51.0928Z" fill="#00224C"/>
</svg>
